ffmpeg started on 2018-12-30 at 07:55:58
Report written to "ffreport.log"
Command line:
"C:\\Program Files (x86)\\Konayuki-moe\\KONAYUKI PLUS\\codecs\\ffmpeg.exe" -loglevel panic -hide_banner -report -i test.avs -i onlysubtitle.avs -lavfi "ssim;[0:v][1:v]psnr" -f null -
Guessed Channel Layout for Input Stream #0.1 : stereo
Input #0, avisynth, from 'test.avs':
  Duration: 00:00:36.92, start: 0.000000, bitrate: 0 kb/s
    Stream #0:0: Video: rawvideo (BGR[24] / 0x18524742), bgr24, 720x70, 24 fps, 24 tbr, 24 tbn, 24 tbc
    Stream #0:1: Audio: pcm_f32le, 44100 Hz, stereo, flt, 2822 kb/s
Guessed Channel Layout for Input Stream #1.1 : stereo
Input #1, avisynth, from 'onlysubtitle.avs':
  Duration: 00:00:36.92, start: 0.000000, bitrate: 0 kb/s
    Stream #1:0: Video: rawvideo (BGR[24] / 0x18524742), bgr24, 720x70, 24 fps, 24 tbr, 24 tbn, 24 tbc
    Stream #1:1: Audio: pcm_f32le, 44100 Hz, stereo, flt, 2822 kb/s
Stream mapping:
  Stream #0:0 (rawvideo) -> ssim:main (graph 0)
  Stream #0:0 (rawvideo) -> psnr:main (graph 0)
  Stream #1:0 (rawvideo) -> ssim:reference (graph 0)
  Stream #1:0 (rawvideo) -> psnr:reference (graph 0)
  ssim (graph 0) -> Stream #0:0 (wrapped_avframe)
  psnr (graph 0) -> Stream #0:1 (wrapped_avframe)
  Stream #0:1 -> #0:2 (pcm_f32le (native) -> pcm_s16le (native))
Press [q] to stop, [?] for help
Output #0, null, to 'pipe:':
  Metadata:
    encoder         : KONAYUKI PLUS
    Stream #0:0: Video: wrapped_avframe, gbrp(progressive), 720x70, q=2-31, 200 kb/s, 24 fps, 24 tbn, 24 tbc
    Metadata:
      encoder         : KONAYUKI PLUS wrapped_avframe
    Stream #0:1: Video: wrapped_avframe, gbrp(progressive), 720x70, q=2-31, 200 kb/s, 24 fps, 24 tbn, 24 tbc
    Metadata:
      encoder         : KONAYUKI PLUS wrapped_avframe
    Stream #0:2: Audio: pcm_s16le, 44100 Hz, stereo, s16, 1411 kb/s
    Metadata:
      encoder         : KONAYUKI PLUS pcm_s16le
frame=    1 fps=0.8 q=-0.0 q=-0.0 size=N/A time=00:00:00.04 bitrate=N/A speed=0.0333x    frame=    9 fps=1.0 q=-0.0 q=-0.0 size=N/A time=00:00:00.37 bitrate=N/A speed=0.043x    frame=   10 fps=0.6 q=-0.0 q=-0.0 size=N/A time=00:00:00.41 bitrate=N/A speed=0.0262x    frame=   11 fps=0.5 q=-0.0 q=-0.0 size=N/A time=00:00:00.45 bitrate=N/A speed=0.0209x    frame=   12 fps=0.4 q=-0.0 q=-0.0 size=N/A time=00:00:00.50 bitrate=N/A speed=0.0175x    frame=   13 fps=0.4 q=-0.0 q=-0.0 size=N/A time=00:00:00.54 bitrate=N/A speed=0.0156x    frame=   14 fps=0.3 q=-0.0 q=-0.0 size=N/A time=00:00:00.58 bitrate=N/A speed=0.0143x    frame=   15 fps=0.3 q=-0.0 q=-0.0 size=N/A time=00:00:00.62 bitrate=N/A speed=0.0135x    frame=   16 fps=0.3 q=-0.0 q=-0.0 size=N/A time=00:00:00.66 bitrate=N/A speed=0.0129x    frame=   17 fps=0.3 q=-0.0 q=-0.0 size=N/A time=00:00:00.70 bitrate=N/A speed=0.0123x    frame=   18 fps=0.3 q=-0.0 q=-0.0 size=N/A time=00:00:00.75 bitrate=N/A speed=0.0119x    frame=   19 fps=0.3 q=-0.0 q=-0.0 size=N/A time=00:00:00.79 bitrate=N/A speed=0.0116x    frame=   20 fps=0.3 q=-0.0 q=-0.0 size=N/A time=00:00:00.83 bitrate=N/A speed=0.0113x    frame=   21 fps=0.3 q=-0.0 q=-0.0 size=N/A time=00:00:00.87 bitrate=N/A speed=0.0111x    frame=   22 fps=0.3 q=-0.0 q=-0.0 size=N/A time=00:00:00.91 bitrate=N/A speed=0.0109x    frame=   23 fps=0.3 q=-0.0 q=-0.0 size=N/A time=00:00:00.95 bitrate=N/A speed=0.0107x    frame=   24 fps=0.3 q=-0.0 q=-0.0 size=N/A time=00:00:01.00 bitrate=N/A speed=0.0106x    frame=   25 fps=0.2 q=-0.0 q=-0.0 size=N/A time=00:00:01.04 bitrate=N/A speed=0.0104x    frame=   26 fps=0.2 q=-0.0 q=-0.0 size=N/A time=00:00:01.08 bitrate=N/A speed=0.0103x    frame=   27 fps=0.2 q=-0.0 q=-0.0 size=N/A time=00:00:01.12 bitrate=N/A speed=0.0102x    frame=   28 fps=0.2 q=-0.0 q=-0.0 size=N/A time=00:00:01.16 bitrate=N/A speed=0.0102x    frame=   29 fps=0.2 q=-0.0 q=-0.0 size=N/A time=00:00:01.20 bitrate=N/A speed=0.0101x    frame=   30 fps=0.2 q=-0.0 q=-0.0 size=N/A time=00:00:01.25 bitrate=N/A speed=0.0101x    frame=   31 fps=0.2 q=-0.0 q=-0.0 size=N/A time=00:00:01.29 bitrate=N/A speed=0.00997x    frame=   32 fps=0.2 q=-0.0 q=-0.0 size=N/A time=00:00:01.33 bitrate=N/A speed=0.00987x    frame=   33 fps=0.2 q=-0.0 q=-0.0 size=N/A time=00:00:01.37 bitrate=N/A speed=0.00975x    frame=   34 fps=0.2 q=-0.0 q=-0.0 size=N/A time=00:00:01.41 bitrate=N/A speed=0.00965x    frame=   35 fps=0.2 q=-0.0 q=-0.0 size=N/A time=00:00:01.45 bitrate=N/A speed=0.00958x    frame=   36 fps=0.2 q=-0.0 q=-0.0 size=N/A time=00:00:01.50 bitrate=N/A speed=0.00949x    frame=   37 fps=0.2 q=-0.0 q=-0.0 size=N/A time=00:00:01.54 bitrate=N/A speed=0.00949x    frame=   38 fps=0.2 q=-0.0 q=-0.0 size=N/A time=00:00:01.58 bitrate=N/A speed=0.00949x    frame=   39 fps=0.2 q=-0.0 q=-0.0 size=N/A time=00:00:01.62 bitrate=N/A speed=0.00951x    frame=   40 fps=0.2 q=-0.0 q=-0.0 size=N/A time=00:00:01.66 bitrate=N/A speed=0.00952x    frame=   41 fps=0.2 q=-0.0 q=-0.0 size=N/A time=00:00:01.70 bitrate=N/A speed=0.00952x    frame=   42 fps=0.2 q=-0.0 q=-0.0 size=N/A time=00:00:01.75 bitrate=N/A speed=0.0095x    frame=   43 fps=0.2 q=-0.0 q=-0.0 size=N/A time=00:00:01.79 bitrate=N/A speed=0.00953x    frame=   44 fps=0.2 q=-0.0 q=-0.0 size=N/A time=00:00:01.83 bitrate=N/A speed=0.00956x    frame=   45 fps=0.2 q=-0.0 q=-0.0 size=N/A time=00:00:01.87 bitrate=N/A speed=0.00957x    frame=   46 fps=0.2 q=-0.0 q=-0.0 size=N/A time=00:00:01.91 bitrate=N/A speed=0.00957x    frame=   47 fps=0.2 q=-0.0 q=-0.0 size=N/A time=00:00:01.95 bitrate=N/A speed=0.00958x    frame=   48 fps=0.2 q=-0.0 q=-0.0 size=N/A time=00:00:02.00 bitrate=N/A speed=0.00958x    frame=   49 fps=0.2 q=-0.0 q=-0.0 size=N/A time=00:00:02.04 bitrate=N/A speed=0.00959x    frame=   50 fps=0.2 q=-0.0 q=-0.0 size=N/A time=00:00:02.08 bitrate=N/A speed=0.00959x    frame=   51 fps=0.2 q=-0.0 q=-0.0 size=N/A time=00:00:02.12 bitrate=N/A speed=0.0096x    frame=   52 fps=0.2 q=-0.0 q=-0.0 size=N/A time=00:00:02.16 bitrate=N/A speed=0.00961x    frame=   53 fps=0.2 q=-0.0 q=-0.0 size=N/A time=00:00:02.20 bitrate=N/A speed=0.00946x    frame=   54 fps=0.2 q=-0.0 q=-0.0 size=N/A time=00:00:02.25 bitrate=N/A speed=0.00936x    frame=   55 fps=0.2 q=-0.0 q=-0.0 size=N/A time=00:00:02.29 bitrate=N/A speed=0.00931x    frame=   56 fps=0.2 q=-0.0 q=-0.0 size=N/A time=00:00:02.33 bitrate=N/A speed=0.00923x    frame=   57 fps=0.2 q=-0.0 q=-0.0 size=N/A time=00:00:02.37 bitrate=N/A speed=0.00924x    frame=   58 fps=0.2 q=-0.0 q=-0.0 size=N/A time=00:00:02.41 bitrate=N/A speed=0.00926x    frame=   59 fps=0.2 q=-0.0 q=-0.0 size=N/A time=00:00:02.45 bitrate=N/A speed=0.00925x    frame=   60 fps=0.2 q=-0.0 q=-0.0 size=N/A time=00:00:02.50 bitrate=N/A speed=0.00925x    frame=   61 fps=0.2 q=-0.0 q=-0.0 size=N/A time=00:00:02.54 bitrate=N/A speed=0.00926x    frame=   62 fps=0.2 q=-0.0 q=-0.0 size=N/A time=00:00:02.58 bitrate=N/A speed=0.00927x    frame=   63 fps=0.2 q=-0.0 q=-0.0 size=N/A time=00:00:02.62 bitrate=N/A speed=0.00912x    frame=   64 fps=0.2 q=-0.0 q=-0.0 size=N/A time=00:00:02.66 bitrate=N/A speed=0.00898x    frame=   65 fps=0.2 q=-0.0 q=-0.0 size=N/A time=00:00:02.70 bitrate=N/A speed=0.00891x    frame=   66 fps=0.2 q=-0.0 q=-0.0 size=N/A time=00:00:02.75 bitrate=N/A speed=0.00886x    frame=   67 fps=0.2 q=-0.0 q=-0.0 size=N/A time=00:00:02.79 bitrate=N/A speed=0.00886x    frame=   68 fps=0.2 q=-0.0 q=-0.0 size=N/A time=00:00:02.83 bitrate=N/A speed=0.00886x    frame=   69 fps=0.2 q=-0.0 q=-0.0 size=N/A time=00:00:02.87 bitrate=N/A speed=0.00887x    frame=   70 fps=0.2 q=-0.0 q=-0.0 size=N/A time=00:00:02.91 bitrate=N/A speed=0.00887x    frame=   71 fps=0.2 q=-0.0 q=-0.0 size=N/A time=00:00:02.95 bitrate=N/A speed=0.00887x    frame=   72 fps=0.2 q=-0.0 q=-0.0 size=N/A time=00:00:03.00 bitrate=N/A speed=0.00888x    frame=   73 fps=0.2 q=-0.0 q=-0.0 size=N/A time=00:00:03.04 bitrate=N/A speed=0.00883x    frame=   74 fps=0.2 q=-0.0 q=-0.0 size=N/A time=00:00:03.08 bitrate=N/A speed=0.00879x    frame=   75 fps=0.2 q=-0.0 q=-0.0 size=N/A time=00:00:03.12 bitrate=N/A speed=0.00882x    frame=   76 fps=0.2 q=-0.0 q=-0.0 size=N/A time=00:00:03.16 bitrate=N/A speed=0.00885x    frame=   77 fps=0.2 q=-0.0 q=-0.0 size=N/A time=00:00:03.20 bitrate=N/A speed=0.00888x    frame=   78 fps=0.2 q=-0.0 q=-0.0 size=N/A time=00:00:03.25 bitrate=N/A speed=0.00891x    frame=   79 fps=0.2 q=-0.0 q=-0.0 size=N/A time=00:00:03.29 bitrate=N/A speed=0.00885x    frame=   80 fps=0.2 q=-0.0 q=-0.0 size=N/A time=00:00:03.33 bitrate=N/A speed=0.00879x    frame=   81 fps=0.2 q=-0.0 q=-0.0 size=N/A time=00:00:03.37 bitrate=N/A speed=0.00881x    frame=   82 fps=0.2 q=-0.0 q=-0.0 size=N/A time=00:00:03.41 bitrate=N/A speed=0.00883x    frame=   83 fps=0.2 q=-0.0 q=-0.0 size=N/A time=00:00:03.45 bitrate=N/A speed=0.00885x    frame=   84 fps=0.2 q=-0.0 q=-0.0 size=N/A time=00:00:03.50 bitrate=N/A speed=0.00886x    frame=   85 fps=0.2 q=-0.0 q=-0.0 size=N/A time=00:00:03.54 bitrate=N/A speed=0.00885x    frame=   86 fps=0.2 q=-0.0 q=-0.0 size=N/A time=00:00:03.58 bitrate=N/A speed=0.00884x    frame=   87 fps=0.2 q=-0.0 q=-0.0 size=N/A time=00:00:03.62 bitrate=N/A speed=0.00887x    frame=   88 fps=0.2 q=-0.0 q=-0.0 size=N/A time=00:00:03.66 bitrate=N/A speed=0.0089x    frame=   89 fps=0.2 q=-0.0 q=-0.0 size=N/A time=00:00:03.70 bitrate=N/A speed=0.00892x    frame=   90 fps=0.2 q=-0.0 q=-0.0 size=N/A time=00:00:03.75 bitrate=N/A speed=0.00894x    frame=   91 fps=0.2 q=-0.0 q=-0.0 size=N/A time=00:00:03.79 bitrate=N/A speed=0.00895x    frame=   92 fps=0.2 q=-0.0 q=-0.0 size=N/A time=00:00:03.83 bitrate=N/A speed=0.00896x    frame=   93 fps=0.2 q=-0.0 q=-0.0 size=N/A time=00:00:03.87 bitrate=N/A speed=0.00898x    frame=   94 fps=0.2 q=-0.0 q=-0.0 size=N/A time=00:00:03.91 bitrate=N/A speed=0.00899x    frame=   95 fps=0.2 q=-0.0 q=-0.0 size=N/A time=00:00:03.95 bitrate=N/A speed=0.00901x    frame=   96 fps=0.2 q=-0.0 q=-0.0 size=N/A time=00:00:04.00 bitrate=N/A speed=0.00903x    frame=   97 fps=0.2 q=-0.0 q=-0.0 size=N/A time=00:00:04.04 bitrate=N/A speed=0.00904x    frame=   98 fps=0.2 q=-0.0 q=-0.0 size=N/A time=00:00:04.08 bitrate=N/A speed=0.00905x    frame=   99 fps=0.2 q=-0.0 q=-0.0 size=N/A time=00:00:04.12 bitrate=N/A speed=0.00902x    frame=  100 fps=0.2 q=-0.0 q=-0.0 size=N/A time=00:00:04.16 bitrate=N/A speed=0.00899x    frame=  101 fps=0.2 q=-0.0 q=-0.0 size=N/A time=00:00:04.20 bitrate=N/A speed=0.00867x    frame=  102 fps=0.2 q=-0.0 q=-0.0 size=N/A time=00:00:04.25 bitrate=N/A speed=0.00839x    frame=  103 fps=0.2 q=-0.0 q=-0.0 size=N/A time=00:00:04.29 bitrate=N/A speed=0.00837x    frame=  104 fps=0.2 q=-0.0 q=-0.0 size=N/A time=00:00:04.33 bitrate=N/A speed=0.00836x    frame=  105 fps=0.2 q=-0.0 q=-0.0 size=N/A time=00:00:04.37 bitrate=N/A speed=0.00835x    frame=  106 fps=0.2 q=-0.0 q=-0.0 size=N/A time=00:00:04.41 bitrate=N/A speed=0.00834x    frame=  107 fps=0.2 q=-0.0 q=-0.0 size=N/A time=00:00:04.45 bitrate=N/A speed=0.00834x    frame=  108 fps=0.2 q=-0.0 q=-0.0 size=N/A time=00:00:04.50 bitrate=N/A speed=0.00833x    frame=  109 fps=0.2 q=-0.0 q=-0.0 size=N/A time=00:00:04.54 bitrate=N/A speed=0.00831x    frame=  110 fps=0.2 q=-0.0 q=-0.0 size=N/A time=00:00:04.58 bitrate=N/A speed=0.00828x    frame=  111 fps=0.2 q=-0.0 q=-0.0 size=N/A time=00:00:04.62 bitrate=N/A speed=0.0083x    frame=  112 fps=0.2 q=-0.0 q=-0.0 size=N/A time=00:00:04.66 bitrate=N/A speed=0.00832x    frame=  113 fps=0.2 q=-0.0 q=-0.0 size=N/A time=00:00:04.70 bitrate=N/A speed=0.00831x    frame=  114 fps=0.2 q=-0.0 q=-0.0 size=N/A time=00:00:04.75 bitrate=N/A speed=0.0083x    frame=  115 fps=0.2 q=-0.0 q=-0.0 size=N/A time=00:00:04.79 bitrate=N/A speed=0.0083x    frame=  116 fps=0.2 q=-0.0 q=-0.0 size=N/A time=00:00:04.83 bitrate=N/A speed=0.0083x    frame=  117 fps=0.2 q=-0.0 q=-0.0 size=N/A time=00:00:04.87 bitrate=N/A speed=0.00831x    frame=  118 fps=0.2 q=-0.0 q=-0.0 size=N/A time=00:00:04.91 bitrate=N/A speed=0.00831x    frame=  119 fps=0.2 q=-0.0 q=-0.0 size=N/A time=00:00:04.95 bitrate=N/A speed=0.00832x    frame=  120 fps=0.2 q=-0.0 q=-0.0 size=N/A time=00:00:05.00 bitrate=N/A speed=0.00833x    frame=  121 fps=0.2 q=-0.0 q=-0.0 size=N/A time=00:00:05.04 bitrate=N/A speed=0.00828x    frame=  122 fps=0.2 q=-0.0 q=-0.0 size=N/A time=00:00:05.08 bitrate=N/A speed=0.00823x    frame=  123 fps=0.2 q=-0.0 q=-0.0 size=N/A time=00:00:05.12 bitrate=N/A speed=0.00824x    frame=  124 fps=0.2 q=-0.0 q=-0.0 size=N/A time=00:00:05.16 bitrate=N/A speed=0.00824x    frame=  125 fps=0.2 q=-0.0 q=-0.0 size=N/A time=00:00:05.20 bitrate=N/A speed=0.00822x    frame=  126 fps=0.2 q=-0.0 q=-0.0 size=N/A time=00:00:05.25 bitrate=N/A speed=0.00821x    frame=  127 fps=0.2 q=-0.0 q=-0.0 size=N/A time=00:00:05.29 bitrate=N/A speed=0.00818x    frame=  128 fps=0.2 q=-0.0 q=-0.0 size=N/A time=00:00:05.33 bitrate=N/A speed=0.00816x    frame=  129 fps=0.2 q=-0.0 q=-0.0 size=N/A time=00:00:05.37 bitrate=N/A speed=0.00814x    frame=  130 fps=0.2 q=-0.0 q=-0.0 size=N/A time=00:00:05.41 bitrate=N/A speed=0.00812x    frame=  131 fps=0.2 q=-0.0 q=-0.0 size=N/A time=00:00:05.45 bitrate=N/A speed=0.00799x    frame=  132 fps=0.2 q=-0.0 q=-0.0 size=N/A time=00:00:05.50 bitrate=N/A speed=0.00787x    frame=  133 fps=0.2 q=-0.0 q=-0.0 size=N/A time=00:00:05.54 bitrate=N/A speed=0.00785x    frame=  134 fps=0.2 q=-0.0 q=-0.0 size=N/A time=00:00:05.58 bitrate=N/A speed=0.00783x    frame=  135 fps=0.2 q=-0.0 q=-0.0 size=N/A time=00:00:05.62 bitrate=N/A speed=0.0078x    frame=  136 fps=0.2 q=-0.0 q=-0.0 size=N/A time=00:00:05.66 bitrate=N/A speed=0.00777x    frame=  137 fps=0.2 q=-0.0 q=-0.0 size=N/A time=00:00:05.70 bitrate=N/A speed=0.00775x    frame=  138 fps=0.2 q=-0.0 q=-0.0 size=N/A time=00:00:05.75 bitrate=N/A speed=0.00774x    frame=  139 fps=0.2 q=-0.0 q=-0.0 size=N/A time=00:00:05.79 bitrate=N/A speed=0.00772x    frame=  140 fps=0.2 q=-0.0 q=-0.0 size=N/A time=00:00:05.83 bitrate=N/A speed=0.00769x    frame=  141 fps=0.2 q=-0.0 q=-0.0 size=N/A time=00:00:05.87 bitrate=N/A speed=0.00768x    frame=  142 fps=0.2 q=-0.0 q=-0.0 size=N/A time=00:00:05.91 bitrate=N/A speed=0.00766x    frame=  143 fps=0.2 q=-0.0 q=-0.0 size=N/A time=00:00:05.95 bitrate=N/A speed=0.00752x    frame=  144 fps=0.2 q=-0.0 q=-0.0 size=N/A time=00:00:06.00 bitrate=N/A speed=0.00738x    frame=  145 fps=0.2 q=-0.0 q=-0.0 size=N/A time=00:00:06.04 bitrate=N/A speed=0.00736x    frame=  146 fps=0.2 q=-0.0 q=-0.0 size=N/A time=00:00:06.08 bitrate=N/A speed=0.00734x    frame=  147 fps=0.2 q=-0.0 q=-0.0 size=N/A time=00:00:06.12 bitrate=N/A speed=0.00733x    frame=  148 fps=0.2 q=-0.0 q=-0.0 size=N/A time=00:00:06.16 bitrate=N/A speed=0.00731x    frame=  149 fps=0.2 q=-0.0 q=-0.0 size=N/A time=00:00:06.20 bitrate=N/A speed=0.00728x    frame=  150 fps=0.2 q=-0.0 q=-0.0 size=N/A time=00:00:06.25 bitrate=N/A speed=0.00725x    frame=  151 fps=0.2 q=-0.0 q=-0.0 size=N/A time=00:00:06.29 bitrate=N/A speed=0.00725x    frame=  152 fps=0.2 q=-0.0 q=-0.0 size=N/A time=00:00:06.33 bitrate=N/A speed=0.00723x    frame=  153 fps=0.2 q=-0.0 q=-0.0 size=N/A time=00:00:06.37 bitrate=N/A speed=0.00726x    frame=  154 fps=0.2 q=-0.0 q=-0.0 size=N/A time=00:00:06.41 bitrate=N/A speed=0.00729x    frame=  157 fps=0.2 q=-0.0 q=-0.0 size=N/A time=00:00:06.54 bitrate=N/A speed=0.00738x    frame=  158 fps=0.2 q=-0.0 q=-0.0 size=N/A time=00:00:06.58 bitrate=N/A speed=0.00739x    frame=  159 fps=0.2 q=-0.0 q=-0.0 size=N/A time=00:00:06.62 bitrate=N/A speed=0.0074x    frame=  160 fps=0.2 q=-0.0 q=-0.0 size=N/A time=00:00:06.66 bitrate=N/A speed=0.00741x    frame=  161 fps=0.2 q=-0.0 q=-0.0 size=N/A time=00:00:06.70 bitrate=N/A speed=0.00742x    frame=  162 fps=0.2 q=-0.0 q=-0.0 size=N/A time=00:00:06.75 bitrate=N/A speed=0.00743x    frame=  163 fps=0.2 q=-0.0 q=-0.0 size=N/A time=00:00:06.79 bitrate=N/A speed=0.00744x    frame=  164 fps=0.2 q=-0.0 q=-0.0 size=N/A time=00:00:06.83 bitrate=N/A speed=0.00744x    frame=  165 fps=0.2 q=-0.0 q=-0.0 size=N/A time=00:00:06.87 bitrate=N/A speed=0.00745x    frame=  166 fps=0.2 q=-0.0 q=-0.0 size=N/A time=00:00:06.91 bitrate=N/A speed=0.00745x    frame=  167 fps=0.2 q=-0.0 q=-0.0 size=N/A time=00:00:06.95 bitrate=N/A speed=0.00734x    frame=  168 fps=0.2 q=-0.0 q=-0.0 size=N/A time=00:00:07.00 bitrate=N/A speed=0.00734x    frame=  169 fps=0.2 q=-0.0 q=-0.0 size=N/A time=00:00:07.04 bitrate=N/A speed=0.00733x    frame=  170 fps=0.2 q=-0.0 q=-0.0 size=N/A time=00:00:07.08 bitrate=N/A speed=0.00733x    frame=  171 fps=0.2 q=-0.0 q=-0.0 size=N/A time=00:00:07.12 bitrate=N/A speed=0.00732x    frame=  172 fps=0.2 q=-0.0 q=-0.0 size=N/A time=00:00:07.16 bitrate=N/A speed=0.00729x    frame=  173 fps=0.2 q=-0.0 q=-0.0 size=N/A time=00:00:07.20 bitrate=N/A speed=0.00726x    frame=  174 fps=0.2 q=-0.0 q=-0.0 size=N/A time=00:00:07.25 bitrate=N/A speed=0.00726x    frame=  175 fps=0.2 q=-0.0 q=-0.0 size=N/A time=00:00:07.29 bitrate=N/A speed=0.00726x    frame=  176 fps=0.2 q=-0.0 q=-0.0 size=N/A time=00:00:07.33 bitrate=N/A speed=0.00726x    frame=  177 fps=0.2 q=-0.0 q=-0.0 size=N/A time=00:00:07.37 bitrate=N/A speed=0.00726x    frame=  178 fps=0.2 q=-0.0 q=-0.0 size=N/A time=00:00:07.41 bitrate=N/A speed=0.00724x    frame=  179 fps=0.2 q=-0.0 q=-0.0 size=N/A time=00:00:07.45 bitrate=N/A speed=0.00722x    frame=  180 fps=0.2 q=-0.0 q=-0.0 size=N/A time=00:00:07.50 bitrate=N/A speed=0.00721x    frame=  181 fps=0.2 q=-0.0 q=-0.0 size=N/A time=00:00:07.54 bitrate=N/A speed=0.00719x    frame=  182 fps=0.2 q=-0.0 q=-0.0 size=N/A time=00:00:07.58 bitrate=N/A speed=0.00717x    frame=  183 fps=0.2 q=-0.0 q=-0.0 size=N/A time=00:00:07.62 bitrate=N/A speed=0.00715x    frame=  184 fps=0.2 q=-0.0 q=-0.0 size=N/A time=00:00:07.66 bitrate=N/A speed=0.00714x    frame=  185 fps=0.2 q=-0.0 q=-0.0 size=N/A time=00:00:07.70 bitrate=N/A speed=0.00713x    frame=  186 fps=0.2 q=-0.0 q=-0.0 size=N/A time=00:00:07.75 bitrate=N/A speed=0.00709x    frame=  187 fps=0.2 q=-0.0 q=-0.0 size=N/A time=00:00:07.79 bitrate=N/A speed=0.00706x    frame=  188 fps=0.2 q=-0.0 q=-0.0 size=N/A time=00:00:07.83 bitrate=N/A speed=0.00704x    frame=  189 fps=0.2 q=-0.0 q=-0.0 size=N/A time=00:00:07.87 bitrate=N/A speed=0.00702x    frame=  190 fps=0.2 q=-0.0 q=-0.0 size=N/A time=00:00:07.91 bitrate=N/A speed=0.00701x    frame=  191 fps=0.2 q=-0.0 q=-0.0 size=N/A time=00:00:07.95 bitrate=N/A speed=0.007x    frame=  192 fps=0.2 q=-0.0 q=-0.0 size=N/A time=00:00:08.00 bitrate=N/A speed=0.00698x    frame=  193 fps=0.2 q=-0.0 q=-0.0 size=N/A time=00:00:08.04 bitrate=N/A speed=0.00696x    frame=  194 fps=0.2 q=-0.0 q=-0.0 size=N/A time=00:00:08.08 bitrate=N/A speed=0.00696x    frame=  195 fps=0.2 q=-0.0 q=-0.0 size=N/A time=00:00:08.12 bitrate=N/A speed=0.00695x    frame=  196 fps=0.2 q=-0.0 q=-0.0 size=N/A time=00:00:08.16 bitrate=N/A speed=0.00695x    frame=  197 fps=0.2 q=-0.0 q=-0.0 size=N/A time=00:00:08.20 bitrate=N/A speed=0.00695x    frame=  198 fps=0.2 q=-0.0 q=-0.0 size=N/A time=00:00:08.25 bitrate=N/A speed=0.00695x    frame=  199 fps=0.2 q=-0.0 q=-0.0 size=N/A time=00:00:08.29 bitrate=N/A speed=0.00695x    frame=  200 fps=0.2 q=-0.0 q=-0.0 size=N/A time=00:00:08.33 bitrate=N/A speed=0.00687x    frame=  201 fps=0.2 q=-0.0 q=-0.0 size=N/A time=00:00:08.37 bitrate=N/A speed=0.0068x    frame=  202 fps=0.2 q=-0.0 q=-0.0 size=N/A time=00:00:08.41 bitrate=N/A speed=0.00679x    frame=  203 fps=0.2 q=-0.0 q=-0.0 size=N/A time=00:00:08.45 bitrate=N/A speed=0.00678x    frame=  204 fps=0.2 q=-0.0 q=-0.0 size=N/A time=00:00:08.50 bitrate=N/A speed=0.00676x    frame=  205 fps=0.2 q=-0.0 q=-0.0 size=N/A time=00:00:08.54 bitrate=N/A speed=0.00673x    frame=  206 fps=0.2 q=-0.0 q=-0.0 size=N/A time=00:00:08.58 bitrate=N/A speed=0.00672x    frame=  207 fps=0.2 q=-0.0 q=-0.0 size=N/A time=00:00:08.62 bitrate=N/A speed=0.0067x    frame=  208 fps=0.2 q=-0.0 q=-0.0 size=N/A time=00:00:08.66 bitrate=N/A speed=0.00669x    frame=  209 fps=0.2 q=-0.0 q=-0.0 size=N/A time=00:00:08.70 bitrate=N/A speed=0.00669x    frame=  210 fps=0.2 q=-0.0 q=-0.0 size=N/A time=00:00:08.75 bitrate=N/A speed=0.00667x    frame=  211 fps=0.2 q=-0.0 q=-0.0 size=N/A time=00:00:08.79 bitrate=N/A speed=0.00665x    frame=  212 fps=0.2 q=-0.0 q=-0.0 size=N/A time=00:00:08.83 bitrate=N/A speed=0.00664x    frame=  213 fps=0.2 q=-0.0 q=-0.0 size=N/A time=00:00:08.87 bitrate=N/A speed=0.00663x    frame=  214 fps=0.2 q=-0.0 q=-0.0 size=N/A time=00:00:08.91 bitrate=N/A speed=0.00662x    frame=  215 fps=0.2 q=-0.0 q=-0.0 size=N/A time=00:00:08.95 bitrate=N/A speed=0.00661x    frame=  216 fps=0.2 q=-0.0 q=-0.0 size=N/A time=00:00:09.00 bitrate=N/A speed=0.00661x    frame=  217 fps=0.2 q=-0.0 q=-0.0 size=N/A time=00:00:09.04 bitrate=N/A speed=0.00661x    frame=  218 fps=0.2 q=-0.0 q=-0.0 size=N/A time=00:00:09.08 bitrate=N/A speed=0.00661x    frame=  219 fps=0.2 q=-0.0 q=-0.0 size=N/A time=00:00:09.12 bitrate=N/A speed=0.00662x    frame=  220 fps=0.2 q=-0.0 q=-0.0 size=N/A time=00:00:09.16 bitrate=N/A speed=0.00662x    frame=  221 fps=0.2 q=-0.0 q=-0.0 size=N/A time=00:00:09.20 bitrate=N/A speed=0.00662x    frame=  222 fps=0.2 q=-0.0 q=-0.0 size=N/A time=00:00:09.25 bitrate=N/A speed=0.00661x    frame=  223 fps=0.2 q=-0.0 q=-0.0 size=N/A time=00:00:09.29 bitrate=N/A speed=0.00659x    frame=  224 fps=0.2 q=-0.0 q=-0.0 size=N/A time=00:00:09.33 bitrate=N/A speed=0.00659x    frame=  225 fps=0.2 q=-0.0 q=-0.0 size=N/A time=00:00:09.37 bitrate=N/A speed=0.00659x    frame=  226 fps=0.2 q=-0.0 q=-0.0 size=N/A time=00:00:09.41 bitrate=N/A speed=0.0066x    frame=  227 fps=0.2 q=-0.0 q=-0.0 size=N/A time=00:00:09.45 bitrate=N/A speed=0.0066x    frame=  228 fps=0.2 q=-0.0 q=-0.0 size=N/A time=00:00:09.50 bitrate=N/A speed=0.0066x    frame=  229 fps=0.2 q=-0.0 q=-0.0 size=N/A time=00:00:09.54 bitrate=N/A speed=0.00662x    frame=  230 fps=0.2 q=-0.0 q=-0.0 size=N/A time=00:00:09.58 bitrate=N/A speed=0.00663x    frame=  231 fps=0.2 q=-0.0 q=-0.0 size=N/A time=00:00:09.62 bitrate=N/A speed=0.00664x    frame=  232 fps=0.2 q=-0.0 q=-0.0 size=N/A time=00:00:09.66 bitrate=N/A speed=0.00665x    frame=  233 fps=0.2 q=-0.0 q=-0.0 size=N/A time=00:00:09.70 bitrate=N/A speed=0.00666x    frame=  234 fps=0.2 q=-0.0 q=-0.0 size=N/A time=00:00:09.75 bitrate=N/A speed=0.00668x    frame=  235 fps=0.2 q=-0.0 q=-0.0 size=N/A time=00:00:09.79 bitrate=N/A speed=0.0067x    frame=  236 fps=0.2 q=-0.0 q=-0.0 size=N/A time=00:00:09.83 bitrate=N/A speed=0.00671x    frame=  237 fps=0.2 q=-0.0 q=-0.0 size=N/A time=00:00:09.87 bitrate=N/A speed=0.00673x    frame=  238 fps=0.2 q=-0.0 q=-0.0 size=N/A time=00:00:09.91 bitrate=N/A speed=0.00674x    frame=  239 fps=0.2 q=-0.0 q=-0.0 size=N/A time=00:00:09.95 bitrate=N/A speed=0.00675x    frame=  240 fps=0.2 q=-0.0 q=-0.0 size=N/A time=00:00:10.00 bitrate=N/A speed=0.00677x    frame=  241 fps=0.2 q=-0.0 q=-0.0 size=N/A time=00:00:10.04 bitrate=N/A speed=0.00679x    frame=  242 fps=0.2 q=-0.0 q=-0.0 size=N/A time=00:00:10.08 bitrate=N/A speed=0.0068x    frame=  243 fps=0.2 q=-0.0 q=-0.0 size=N/A time=00:00:10.12 bitrate=N/A speed=0.00682x    frame=  244 fps=0.2 q=-0.0 q=-0.0 size=N/A time=00:00:10.16 bitrate=N/A speed=0.00683x    frame=  245 fps=0.2 q=-0.0 q=-0.0 size=N/A time=00:00:10.20 bitrate=N/A speed=0.00685x    frame=  246 fps=0.2 q=-0.0 q=-0.0 size=N/A time=00:00:10.25 bitrate=N/A speed=0.00686x    frame=  247 fps=0.2 q=-0.0 q=-0.0 size=N/A time=00:00:10.29 bitrate=N/A speed=0.00687x    frame=  248 fps=0.2 q=-0.0 q=-0.0 size=N/A time=00:00:10.33 bitrate=N/A speed=0.00689x    frame=  249 fps=0.2 q=-0.0 q=-0.0 size=N/A time=00:00:10.37 bitrate=N/A speed=0.0069x    frame=  250 fps=0.2 q=-0.0 q=-0.0 size=N/A time=00:00:10.41 bitrate=N/A speed=0.00692x    frame=  251 fps=0.2 q=-0.0 q=-0.0 size=N/A time=00:00:10.45 bitrate=N/A speed=0.00694x    frame=  252 fps=0.2 q=-0.0 q=-0.0 size=N/A time=00:00:10.50 bitrate=N/A speed=0.00695x    frame=  253 fps=0.2 q=-0.0 q=-0.0 size=N/A time=00:00:10.54 bitrate=N/A speed=0.00697x    frame=  254 fps=0.2 q=-0.0 q=-0.0 size=N/A time=00:00:10.58 bitrate=N/A speed=0.00698x    frame=  255 fps=0.2 q=-0.0 q=-0.0 size=N/A time=00:00:10.62 bitrate=N/A speed=0.007x    frame=  256 fps=0.2 q=-0.0 q=-0.0 size=N/A time=00:00:10.66 bitrate=N/A speed=0.00702x    frame=  257 fps=0.2 q=-0.0 q=-0.0 size=N/A time=00:00:10.70 bitrate=N/A speed=0.00703x    frame=  258 fps=0.2 q=-0.0 q=-0.0 size=N/A time=00:00:10.75 bitrate=N/A speed=0.00705x    frame=  259 fps=0.2 q=-0.0 q=-0.0 size=N/A time=00:00:10.79 bitrate=N/A speed=0.00706x    frame=  260 fps=0.2 q=-0.0 q=-0.0 size=N/A time=00:00:10.83 bitrate=N/A speed=0.00708x    frame=  261 fps=0.2 q=-0.0 q=-0.0 size=N/A time=00:00:10.87 bitrate=N/A speed=0.00709x    frame=  262 fps=0.2 q=-0.0 q=-0.0 size=N/A time=00:00:10.91 bitrate=N/A speed=0.00711x    frame=  263 fps=0.2 q=-0.0 q=-0.0 size=N/A time=00:00:10.95 bitrate=N/A speed=0.00712x    frame=  264 fps=0.2 q=-0.0 q=-0.0 size=N/A time=00:00:11.00 bitrate=N/A speed=0.00714x    frame=  265 fps=0.2 q=-0.0 q=-0.0 size=N/A time=00:00:11.04 bitrate=N/A speed=0.00715x    frame=  266 fps=0.2 q=-0.0 q=-0.0 size=N/A time=00:00:11.08 bitrate=N/A speed=0.00716x    frame=  267 fps=0.2 q=-0.0 q=-0.0 size=N/A time=00:00:11.12 bitrate=N/A speed=0.00718x    frame=  268 fps=0.2 q=-0.0 q=-0.0 size=N/A time=00:00:11.16 bitrate=N/A speed=0.00719x    frame=  269 fps=0.2 q=-0.0 q=-0.0 size=N/A time=00:00:11.20 bitrate=N/A speed=0.0072x    frame=  270 fps=0.2 q=-0.0 q=-0.0 size=N/A time=00:00:11.25 bitrate=N/A speed=0.00722x    frame=  271 fps=0.2 q=-0.0 q=-0.0 size=N/A time=00:00:11.29 bitrate=N/A speed=0.00723x    frame=  272 fps=0.2 q=-0.0 q=-0.0 size=N/A time=00:00:11.33 bitrate=N/A speed=0.00725x    frame=  273 fps=0.2 q=-0.0 q=-0.0 size=N/A time=00:00:11.37 bitrate=N/A speed=0.00726x    frame=  274 fps=0.2 q=-0.0 q=-0.0 size=N/A time=00:00:11.41 bitrate=N/A speed=0.00727x    frame=  275 fps=0.2 q=-0.0 q=-0.0 size=N/A time=00:00:11.45 bitrate=N/A speed=0.00729x    frame=  276 fps=0.2 q=-0.0 q=-0.0 size=N/A time=00:00:11.50 bitrate=N/A speed=0.0073x    frame=  277 fps=0.2 q=-0.0 q=-0.0 size=N/A time=00:00:11.54 bitrate=N/A speed=0.00731x    frame=  278 fps=0.2 q=-0.0 q=-0.0 size=N/A time=00:00:11.58 bitrate=N/A speed=0.00732x    frame=  279 fps=0.2 q=-0.0 q=-0.0 size=N/A time=00:00:11.62 bitrate=N/A speed=0.00734x    frame=  280 fps=0.2 q=-0.0 q=-0.0 size=N/A time=00:00:11.66 bitrate=N/A speed=0.00735x    frame=  281 fps=0.2 q=-0.0 q=-0.0 size=N/A time=00:00:11.70 bitrate=N/A speed=0.00736x    frame=  282 fps=0.2 q=-0.0 q=-0.0 size=N/A time=00:00:11.75 bitrate=N/A speed=0.00738x    frame=  283 fps=0.2 q=-0.0 q=-0.0 size=N/A time=00:00:11.79 bitrate=N/A speed=0.00739x    frame=  284 fps=0.2 q=-0.0 q=-0.0 size=N/A time=00:00:11.83 bitrate=N/A speed=0.0074x    frame=  285 fps=0.2 q=-0.0 q=-0.0 size=N/A time=00:00:11.87 bitrate=N/A speed=0.00742x    frame=  286 fps=0.2 q=-0.0 q=-0.0 size=N/A time=00:00:11.91 bitrate=N/A speed=0.00743x    frame=  287 fps=0.2 q=-0.0 q=-0.0 size=N/A time=00:00:11.95 bitrate=N/A speed=0.00745x    frame=  288 fps=0.2 q=-0.0 q=-0.0 size=N/A time=00:00:12.00 bitrate=N/A speed=0.00746x    frame=  289 fps=0.2 q=-0.0 q=-0.0 size=N/A time=00:00:12.04 bitrate=N/A speed=0.00748x    frame=  290 fps=0.2 q=-0.0 q=-0.0 size=N/A time=00:00:12.08 bitrate=N/A speed=0.00749x    frame=  291 fps=0.2 q=-0.0 q=-0.0 size=N/A time=00:00:12.12 bitrate=N/A speed=0.0075x    frame=  292 fps=0.2 q=-0.0 q=-0.0 size=N/A time=00:00:12.16 bitrate=N/A speed=0.00751x    frame=  293 fps=0.2 q=-0.0 q=-0.0 size=N/A time=00:00:12.20 bitrate=N/A speed=0.00752x    frame=  294 fps=0.2 q=-0.0 q=-0.0 size=N/A time=00:00:12.25 bitrate=N/A speed=0.00754x    frame=  295 fps=0.2 q=-0.0 q=-0.0 size=N/A time=00:00:12.29 bitrate=N/A speed=0.00755x    frame=  296 fps=0.2 q=-0.0 q=-0.0 size=N/A time=00:00:12.33 bitrate=N/A speed=0.00757x    frame=  297 fps=0.2 q=-0.0 q=-0.0 size=N/A time=00:00:12.37 bitrate=N/A speed=0.00758x    frame=  298 fps=0.2 q=-0.0 q=-0.0 size=N/A time=00:00:12.41 bitrate=N/A speed=0.0076x    frame=  299 fps=0.2 q=-0.0 q=-0.0 size=N/A time=00:00:12.45 bitrate=N/A speed=0.00761x    frame=  300 fps=0.2 q=-0.0 q=-0.0 size=N/A time=00:00:12.50 bitrate=N/A speed=0.00762x    frame=  301 fps=0.2 q=-0.0 q=-0.0 size=N/A time=00:00:12.54 bitrate=N/A speed=0.00762x    frame=  302 fps=0.2 q=-0.0 q=-0.0 size=N/A time=00:00:12.58 bitrate=N/A speed=0.00763x    frame=  303 fps=0.2 q=-0.0 q=-0.0 size=N/A time=00:00:12.62 bitrate=N/A speed=0.00763x    frame=  304 fps=0.2 q=-0.0 q=-0.0 size=N/A time=00:00:12.66 bitrate=N/A speed=0.00764x    frame=  305 fps=0.2 q=-0.0 q=-0.0 size=N/A time=00:00:12.70 bitrate=N/A speed=0.00764x    frame=  306 fps=0.2 q=-0.0 q=-0.0 size=N/A time=00:00:12.75 bitrate=N/A speed=0.00765x    frame=  307 fps=0.2 q=-0.0 q=-0.0 size=N/A time=00:00:12.79 bitrate=N/A speed=0.00766x    frame=  308 fps=0.2 q=-0.0 q=-0.0 size=N/A time=00:00:12.83 bitrate=N/A speed=0.00766x    frame=  309 fps=0.2 q=-0.0 q=-0.0 size=N/A time=00:00:12.87 bitrate=N/A speed=0.00766x    frame=  310 fps=0.2 q=-0.0 q=-0.0 size=N/A time=00:00:12.91 bitrate=N/A speed=0.00766x    frame=  311 fps=0.2 q=-0.0 q=-0.0 size=N/A time=00:00:12.95 bitrate=N/A speed=0.00767x    frame=  312 fps=0.2 q=-0.0 q=-0.0 size=N/A time=00:00:13.00 bitrate=N/A speed=0.00768x    frame=  313 fps=0.2 q=-0.0 q=-0.0 size=N/A time=00:00:13.04 bitrate=N/A speed=0.00768x    frame=  314 fps=0.2 q=-0.0 q=-0.0 size=N/A time=00:00:13.08 bitrate=N/A speed=0.00769x    frame=  315 fps=0.2 q=-0.0 q=-0.0 size=N/A time=00:00:13.12 bitrate=N/A speed=0.0077x    frame=  316 fps=0.2 q=-0.0 q=-0.0 size=N/A time=00:00:13.16 bitrate=N/A speed=0.0077x    frame=  317 fps=0.2 q=-0.0 q=-0.0 size=N/A time=00:00:13.20 bitrate=N/A speed=0.0077x    frame=  318 fps=0.2 q=-0.0 q=-0.0 size=N/A time=00:00:13.25 bitrate=N/A speed=0.00771x    frame=  319 fps=0.2 q=-0.0 q=-0.0 size=N/A time=00:00:13.29 bitrate=N/A speed=0.00771x    frame=  320 fps=0.2 q=-0.0 q=-0.0 size=N/A time=00:00:13.33 bitrate=N/A speed=0.00772x    frame=  321 fps=0.2 q=-0.0 q=-0.0 size=N/A time=00:00:13.37 bitrate=N/A speed=0.00773x    frame=  322 fps=0.2 q=-0.0 q=-0.0 size=N/A time=00:00:13.41 bitrate=N/A speed=0.00773x    frame=  323 fps=0.2 q=-0.0 q=-0.0 size=N/A time=00:00:13.45 bitrate=N/A speed=0.00774x    frame=  324 fps=0.2 q=-0.0 q=-0.0 size=N/A time=00:00:13.50 bitrate=N/A speed=0.00774x    frame=  325 fps=0.2 q=-0.0 q=-0.0 size=N/A time=00:00:13.54 bitrate=N/A speed=0.00774x    frame=  326 fps=0.2 q=-0.0 q=-0.0 size=N/A time=00:00:13.58 bitrate=N/A speed=0.00775x    frame=  327 fps=0.2 q=-0.0 q=-0.0 size=N/A time=00:00:13.62 bitrate=N/A speed=0.00775x    frame=  328 fps=0.2 q=-0.0 q=-0.0 size=N/A time=00:00:13.66 bitrate=N/A speed=0.00775x    frame=  329 fps=0.2 q=-0.0 q=-0.0 size=N/A time=00:00:13.70 bitrate=N/A speed=0.00776x    frame=  330 fps=0.2 q=-0.0 q=-0.0 size=N/A time=00:00:13.75 bitrate=N/A speed=0.00776x    frame=  331 fps=0.2 q=-0.0 q=-0.0 size=N/A time=00:00:13.79 bitrate=N/A speed=0.00776x    frame=  332 fps=0.2 q=-0.0 q=-0.0 size=N/A time=00:00:13.83 bitrate=N/A speed=0.00777x    frame=  333 fps=0.2 q=-0.0 q=-0.0 size=N/A time=00:00:13.87 bitrate=N/A speed=0.00777x    frame=  334 fps=0.2 q=-0.0 q=-0.0 size=N/A time=00:00:13.91 bitrate=N/A speed=0.00777x    frame=  335 fps=0.2 q=-0.0 q=-0.0 size=N/A time=00:00:13.95 bitrate=N/A speed=0.00777x    frame=  336 fps=0.2 q=-0.0 q=-0.0 size=N/A time=00:00:14.00 bitrate=N/A speed=0.00778x    frame=  337 fps=0.2 q=-0.0 q=-0.0 size=N/A time=00:00:14.04 bitrate=N/A speed=0.00778x    frame=  338 fps=0.2 q=-0.0 q=-0.0 size=N/A time=00:00:14.08 bitrate=N/A speed=0.00778x    frame=  339 fps=0.2 q=-0.0 q=-0.0 size=N/A time=00:00:14.12 bitrate=N/A speed=0.00779x    frame=  340 fps=0.2 q=-0.0 q=-0.0 size=N/A time=00:00:14.16 bitrate=N/A speed=0.00779x    frame=  341 fps=0.2 q=-0.0 q=-0.0 size=N/A time=00:00:14.20 bitrate=N/A speed=0.00779x    frame=  342 fps=0.2 q=-0.0 q=-0.0 size=N/A time=00:00:14.25 bitrate=N/A speed=0.00779x    frame=  343 fps=0.2 q=-0.0 q=-0.0 size=N/A time=00:00:14.29 bitrate=N/A speed=0.0078x    frame=  344 fps=0.2 q=-0.0 q=-0.0 size=N/A time=00:00:14.33 bitrate=N/A speed=0.0078x    frame=  345 fps=0.2 q=-0.0 q=-0.0 size=N/A time=00:00:14.37 bitrate=N/A speed=0.00781x    frame=  346 fps=0.2 q=-0.0 q=-0.0 size=N/A time=00:00:14.41 bitrate=N/A speed=0.00781x    frame=  347 fps=0.2 q=-0.0 q=-0.0 size=N/A time=00:00:14.45 bitrate=N/A speed=0.00781x    frame=  348 fps=0.2 q=-0.0 q=-0.0 size=N/A time=00:00:14.50 bitrate=N/A speed=0.00782x    frame=  349 fps=0.2 q=-0.0 q=-0.0 size=N/A time=00:00:14.54 bitrate=N/A speed=0.00782x    frame=  350 fps=0.2 q=-0.0 q=-0.0 size=N/A time=00:00:14.58 bitrate=N/A speed=0.00782x    frame=  351 fps=0.2 q=-0.0 q=-0.0 size=N/A time=00:00:14.62 bitrate=N/A speed=0.00783x    frame=  352 fps=0.2 q=-0.0 q=-0.0 size=N/A time=00:00:14.66 bitrate=N/A speed=0.00783x    frame=  353 fps=0.2 q=-0.0 q=-0.0 size=N/A time=00:00:14.70 bitrate=N/A speed=0.00783x    frame=  354 fps=0.2 q=-0.0 q=-0.0 size=N/A time=00:00:14.75 bitrate=N/A speed=0.00783x    frame=  355 fps=0.2 q=-0.0 q=-0.0 size=N/A time=00:00:14.79 bitrate=N/A speed=0.00783x    frame=  356 fps=0.2 q=-0.0 q=-0.0 size=N/A time=00:00:14.83 bitrate=N/A speed=0.00784x    frame=  357 fps=0.2 q=-0.0 q=-0.0 size=N/A time=00:00:14.87 bitrate=N/A speed=0.00784x    frame=  358 fps=0.2 q=-0.0 q=-0.0 size=N/A time=00:00:14.91 bitrate=N/A speed=0.00784x    frame=  359 fps=0.2 q=-0.0 q=-0.0 size=N/A time=00:00:14.95 bitrate=N/A speed=0.00784x    frame=  360 fps=0.2 q=-0.0 q=-0.0 size=N/A time=00:00:15.00 bitrate=N/A speed=0.00785x    frame=  361 fps=0.2 q=-0.0 q=-0.0 size=N/A time=00:00:15.04 bitrate=N/A speed=0.00785x    frame=  362 fps=0.2 q=-0.0 q=-0.0 size=N/A time=00:00:15.08 bitrate=N/A speed=0.00785x    frame=  363 fps=0.2 q=-0.0 q=-0.0 size=N/A time=00:00:15.12 bitrate=N/A speed=0.00785x    frame=  364 fps=0.2 q=-0.0 q=-0.0 size=N/A time=00:00:15.16 bitrate=N/A speed=0.00785x    frame=  365 fps=0.2 q=-0.0 q=-0.0 size=N/A time=00:00:15.20 bitrate=N/A speed=0.00785x    frame=  366 fps=0.2 q=-0.0 q=-0.0 size=N/A time=00:00:15.25 bitrate=N/A speed=0.00785x    frame=  367 fps=0.2 q=-0.0 q=-0.0 size=N/A time=00:00:15.29 bitrate=N/A speed=0.00785x    frame=  368 fps=0.2 q=-0.0 q=-0.0 size=N/A time=00:00:15.33 bitrate=N/A speed=0.00785x    frame=  369 fps=0.2 q=-0.0 q=-0.0 size=N/A time=00:00:15.37 bitrate=N/A speed=0.00785x    frame=  370 fps=0.2 q=-0.0 q=-0.0 size=N/A time=00:00:15.41 bitrate=N/A speed=0.00785x    frame=  371 fps=0.2 q=-0.0 q=-0.0 size=N/A time=00:00:15.45 bitrate=N/A speed=0.00785x    frame=  372 fps=0.2 q=-0.0 q=-0.0 size=N/A time=00:00:15.50 bitrate=N/A speed=0.00785x    frame=  373 fps=0.2 q=-0.0 q=-0.0 size=N/A time=00:00:15.54 bitrate=N/A speed=0.00784x    frame=  374 fps=0.2 q=-0.0 q=-0.0 size=N/A time=00:00:15.58 bitrate=N/A speed=0.00784x    frame=  375 fps=0.2 q=-0.0 q=-0.0 size=N/A time=00:00:15.62 bitrate=N/A speed=0.00784x    frame=  376 fps=0.2 q=-0.0 q=-0.0 size=N/A time=00:00:15.66 bitrate=N/A speed=0.00784x    frame=  377 fps=0.2 q=-0.0 q=-0.0 size=N/A time=00:00:15.70 bitrate=N/A speed=0.00783x    frame=  378 fps=0.2 q=-0.0 q=-0.0 size=N/A time=00:00:15.75 bitrate=N/A speed=0.00783x    frame=  379 fps=0.2 q=-0.0 q=-0.0 size=N/A time=00:00:15.79 bitrate=N/A speed=0.00783x    frame=  380 fps=0.2 q=-0.0 q=-0.0 size=N/A time=00:00:15.83 bitrate=N/A speed=0.00783x    frame=  381 fps=0.2 q=-0.0 q=-0.0 size=N/A time=00:00:15.87 bitrate=N/A speed=0.00783x    frame=  382 fps=0.2 q=-0.0 q=-0.0 size=N/A time=00:00:15.91 bitrate=N/A speed=0.00783x    frame=  383 fps=0.2 q=-0.0 q=-0.0 size=N/A time=00:00:15.95 bitrate=N/A speed=0.00782x    frame=  384 fps=0.2 q=-0.0 q=-0.0 size=N/A time=00:00:16.00 bitrate=N/A speed=0.00781x    frame=  385 fps=0.2 q=-0.0 q=-0.0 size=N/A time=00:00:16.04 bitrate=N/A speed=0.0078x    frame=  386 fps=0.2 q=-0.0 q=-0.0 size=N/A time=00:00:16.08 bitrate=N/A speed=0.0078x    frame=  387 fps=0.2 q=-0.0 q=-0.0 size=N/A time=00:00:16.12 bitrate=N/A speed=0.0078x    frame=  388 fps=0.2 q=-0.0 q=-0.0 size=N/A time=00:00:16.16 bitrate=N/A speed=0.0078x    frame=  389 fps=0.2 q=-0.0 q=-0.0 size=N/A time=00:00:16.20 bitrate=N/A speed=0.0078x    frame=  390 fps=0.2 q=-0.0 q=-0.0 size=N/A time=00:00:16.25 bitrate=N/A speed=0.0078x    frame=  391 fps=0.2 q=-0.0 q=-0.0 size=N/A time=00:00:16.29 bitrate=N/A speed=0.0078x    frame=  392 fps=0.2 q=-0.0 q=-0.0 size=N/A time=00:00:16.33 bitrate=N/A speed=0.0078x    frame=  393 fps=0.2 q=-0.0 q=-0.0 size=N/A time=00:00:16.37 bitrate=N/A speed=0.0078x    frame=  394 fps=0.2 q=-0.0 q=-0.0 size=N/A time=00:00:16.41 bitrate=N/A speed=0.0078x    frame=  395 fps=0.2 q=-0.0 q=-0.0 size=N/A time=00:00:16.45 bitrate=N/A speed=0.0078x    frame=  396 fps=0.2 q=-0.0 q=-0.0 size=N/A time=00:00:16.50 bitrate=N/A speed=0.00779x    frame=  397 fps=0.2 q=-0.0 q=-0.0 size=N/A time=00:00:16.54 bitrate=N/A speed=0.00779x    frame=  398 fps=0.2 q=-0.0 q=-0.0 size=N/A time=00:00:16.58 bitrate=N/A speed=0.00779x    frame=  399 fps=0.2 q=-0.0 q=-0.0 size=N/A time=00:00:16.62 bitrate=N/A speed=0.00779x    frame=  400 fps=0.2 q=-0.0 q=-0.0 size=N/A time=00:00:16.66 bitrate=N/A speed=0.00777x    frame=  401 fps=0.2 q=-0.0 q=-0.0 size=N/A time=00:00:16.70 bitrate=N/A speed=0.00776x    frame=  402 fps=0.2 q=-0.0 q=-0.0 size=N/A time=00:00:16.75 bitrate=N/A speed=0.00776x    frame=  403 fps=0.2 q=-0.0 q=-0.0 size=N/A time=00:00:16.79 bitrate=N/A speed=0.00776x    frame=  404 fps=0.2 q=-0.0 q=-0.0 size=N/A time=00:00:16.83 bitrate=N/A speed=0.00776x    frame=  405 fps=0.2 q=-0.0 q=-0.0 size=N/A time=00:00:16.87 bitrate=N/A speed=0.00776x    frame=  406 fps=0.2 q=-0.0 q=-0.0 size=N/A time=00:00:16.91 bitrate=N/A speed=0.00775x    frame=  407 fps=0.2 q=-0.0 q=-0.0 size=N/A time=00:00:16.95 bitrate=N/A speed=0.00775x    frame=  408 fps=0.2 q=-0.0 q=-0.0 size=N/A time=00:00:17.00 bitrate=N/A speed=0.00775x    frame=  409 fps=0.2 q=-0.0 q=-0.0 size=N/A time=00:00:17.04 bitrate=N/A speed=0.00774x    frame=  410 fps=0.2 q=-0.0 q=-0.0 size=N/A time=00:00:17.08 bitrate=N/A speed=0.00774x    frame=  411 fps=0.2 q=-0.0 q=-0.0 size=N/A time=00:00:17.12 bitrate=N/A speed=0.00774x    frame=  412 fps=0.2 q=-0.0 q=-0.0 size=N/A time=00:00:17.16 bitrate=N/A speed=0.00774x    frame=  413 fps=0.2 q=-0.0 q=-0.0 size=N/A time=00:00:17.20 bitrate=N/A speed=0.00774x    frame=  414 fps=0.2 q=-0.0 q=-0.0 size=N/A time=00:00:17.25 bitrate=N/A speed=0.00773x    frame=  415 fps=0.2 q=-0.0 q=-0.0 size=N/A time=00:00:17.29 bitrate=N/A speed=0.00772x    frame=  416 fps=0.2 q=-0.0 q=-0.0 size=N/A time=00:00:17.33 bitrate=N/A speed=0.00771x    frame=  417 fps=0.2 q=-0.0 q=-0.0 size=N/A time=00:00:17.37 bitrate=N/A speed=0.00771x    frame=  418 fps=0.2 q=-0.0 q=-0.0 size=N/A time=00:00:17.41 bitrate=N/A speed=0.00771x    frame=  419 fps=0.2 q=-0.0 q=-0.0 size=N/A time=00:00:17.45 bitrate=N/A speed=0.0077x    frame=  420 fps=0.2 q=-0.0 q=-0.0 size=N/A time=00:00:17.50 bitrate=N/A speed=0.0077x    frame=  421 fps=0.2 q=-0.0 q=-0.0 size=N/A time=00:00:17.54 bitrate=N/A speed=0.0077x    frame=  422 fps=0.2 q=-0.0 q=-0.0 size=N/A time=00:00:17.58 bitrate=N/A speed=0.0077x    frame=  423 fps=0.2 q=-0.0 q=-0.0 size=N/A time=00:00:17.62 bitrate=N/A speed=0.0077x    frame=  424 fps=0.2 q=-0.0 q=-0.0 size=N/A time=00:00:17.66 bitrate=N/A speed=0.00769x    frame=  425 fps=0.2 q=-0.0 q=-0.0 size=N/A time=00:00:17.70 bitrate=N/A speed=0.00769x    frame=  426 fps=0.2 q=-0.0 q=-0.0 size=N/A time=00:00:17.75 bitrate=N/A speed=0.00769x    frame=  427 fps=0.2 q=-0.0 q=-0.0 size=N/A time=00:00:17.79 bitrate=N/A speed=0.00769x    frame=  428 fps=0.2 q=-0.0 q=-0.0 size=N/A time=00:00:17.83 bitrate=N/A speed=0.00769x    frame=  429 fps=0.2 q=-0.0 q=-0.0 size=N/A time=00:00:17.87 bitrate=N/A speed=0.00768x    frame=  430 fps=0.2 q=-0.0 q=-0.0 size=N/A time=00:00:17.91 bitrate=N/A speed=0.00768x    frame=  431 fps=0.2 q=-0.0 q=-0.0 size=N/A time=00:00:17.95 bitrate=N/A speed=0.00767x    frame=  432 fps=0.2 q=-0.0 q=-0.0 size=N/A time=00:00:18.00 bitrate=N/A speed=0.00766x    frame=  433 fps=0.2 q=-0.0 q=-0.0 size=N/A time=00:00:18.04 bitrate=N/A speed=0.00765x    frame=  434 fps=0.2 q=-0.0 q=-0.0 size=N/A time=00:00:18.08 bitrate=N/A speed=0.00765x    frame=  435 fps=0.2 q=-0.0 q=-0.0 size=N/A time=00:00:18.12 bitrate=N/A speed=0.00765x    frame=  436 fps=0.2 q=-0.0 q=-0.0 size=N/A time=00:00:18.16 bitrate=N/A speed=0.00765x    frame=  437 fps=0.2 q=-0.0 q=-0.0 size=N/A time=00:00:18.20 bitrate=N/A speed=0.00765x    frame=  438 fps=0.2 q=-0.0 q=-0.0 size=N/A time=00:00:18.25 bitrate=N/A speed=0.00764x    frame=  439 fps=0.2 q=-0.0 q=-0.0 size=N/A time=00:00:18.29 bitrate=N/A speed=0.00764x    frame=  440 fps=0.2 q=-0.0 q=-0.0 size=N/A time=00:00:18.33 bitrate=N/A speed=0.00763x    frame=  441 fps=0.2 q=-0.0 q=-0.0 size=N/A time=00:00:18.37 bitrate=N/A speed=0.00763x    frame=  442 fps=0.2 q=-0.0 q=-0.0 size=N/A time=00:00:18.41 bitrate=N/A speed=0.00763x    frame=  443 fps=0.2 q=-0.0 q=-0.0 size=N/A time=00:00:18.45 bitrate=N/A speed=0.00763x    frame=  444 fps=0.2 q=-0.0 q=-0.0 size=N/A time=00:00:18.50 bitrate=N/A speed=0.00763x    frame=  450 fps=0.2 q=-0.0 q=-0.0 size=N/A time=00:00:18.75 bitrate=N/A speed=0.00771x    frame=  451 fps=0.2 q=-0.0 q=-0.0 size=N/A time=00:00:18.79 bitrate=N/A speed=0.0077x    frame=  452 fps=0.2 q=-0.0 q=-0.0 size=N/A time=00:00:18.83 bitrate=N/A speed=0.0077x    frame=  453 fps=0.2 q=-0.0 q=-0.0 size=N/A time=00:00:18.87 bitrate=N/A speed=0.0077x    frame=  454 fps=0.2 q=-0.0 q=-0.0 size=N/A time=00:00:18.91 bitrate=N/A speed=0.0077x    frame=  455 fps=0.2 q=-0.0 q=-0.0 size=N/A time=00:00:18.95 bitrate=N/A speed=0.0077x    frame=  456 fps=0.2 q=-0.0 q=-0.0 size=N/A time=00:00:19.00 bitrate=N/A speed=0.00769x    frame=  457 fps=0.2 q=-0.0 q=-0.0 size=N/A time=00:00:19.04 bitrate=N/A speed=0.00769x    frame=  458 fps=0.2 q=-0.0 q=-0.0 size=N/A time=00:00:19.08 bitrate=N/A speed=0.00769x    frame=  459 fps=0.2 q=-0.0 q=-0.0 size=N/A time=00:00:19.12 bitrate=N/A speed=0.00769x    frame=  460 fps=0.2 q=-0.0 q=-0.0 size=N/A time=00:00:19.16 bitrate=N/A speed=0.0077x    frame=  461 fps=0.2 q=-0.0 q=-0.0 size=N/A time=00:00:19.20 bitrate=N/A speed=0.0077x    frame=  462 fps=0.2 q=-0.0 q=-0.0 size=N/A time=00:00:19.25 bitrate=N/A speed=0.0077x    frame=  463 fps=0.2 q=-0.0 q=-0.0 size=N/A time=00:00:19.29 bitrate=N/A speed=0.00771x    frame=  464 fps=0.2 q=-0.0 q=-0.0 size=N/A time=00:00:19.33 bitrate=N/A speed=0.00771x    frame=  465 fps=0.2 q=-0.0 q=-0.0 size=N/A time=00:00:19.37 bitrate=N/A speed=0.00771x    frame=  466 fps=0.2 q=-0.0 q=-0.0 size=N/A time=00:00:19.41 bitrate=N/A speed=0.00771x    frame=  467 fps=0.2 q=-0.0 q=-0.0 size=N/A time=00:00:19.45 bitrate=N/A speed=0.00772x    frame=  468 fps=0.2 q=-0.0 q=-0.0 size=N/A time=00:00:19.50 bitrate=N/A speed=0.00772x    frame=  469 fps=0.2 q=-0.0 q=-0.0 size=N/A time=00:00:19.54 bitrate=N/A speed=0.00773x    frame=  470 fps=0.2 q=-0.0 q=-0.0 size=N/A time=00:00:19.58 bitrate=N/A speed=0.00773x    frame=  471 fps=0.2 q=-0.0 q=-0.0 size=N/A time=00:00:19.62 bitrate=N/A speed=0.00773x    frame=  472 fps=0.2 q=-0.0 q=-0.0 size=N/A time=00:00:19.66 bitrate=N/A speed=0.00774x    frame=  473 fps=0.2 q=-0.0 q=-0.0 size=N/A time=00:00:19.70 bitrate=N/A speed=0.00774x    frame=  474 fps=0.2 q=-0.0 q=-0.0 size=N/A time=00:00:19.75 bitrate=N/A speed=0.00774x    frame=  475 fps=0.2 q=-0.0 q=-0.0 size=N/A time=00:00:19.79 bitrate=N/A speed=0.00775x    frame=  476 fps=0.2 q=-0.0 q=-0.0 size=N/A time=00:00:19.83 bitrate=N/A speed=0.00775x    frame=  477 fps=0.2 q=-0.0 q=-0.0 size=N/A time=00:00:19.87 bitrate=N/A speed=0.00776x    frame=  478 fps=0.2 q=-0.0 q=-0.0 size=N/A time=00:00:19.91 bitrate=N/A speed=0.00776x    frame=  479 fps=0.2 q=-0.0 q=-0.0 size=N/A time=00:00:19.95 bitrate=N/A speed=0.00776x    frame=  480 fps=0.2 q=-0.0 q=-0.0 size=N/A time=00:00:20.00 bitrate=N/A speed=0.00777x    frame=  481 fps=0.2 q=-0.0 q=-0.0 size=N/A time=00:00:20.04 bitrate=N/A speed=0.00777x    frame=  482 fps=0.2 q=-0.0 q=-0.0 size=N/A time=00:00:20.08 bitrate=N/A speed=0.00778x    frame=  483 fps=0.2 q=-0.0 q=-0.0 size=N/A time=00:00:20.12 bitrate=N/A speed=0.00778x    frame=  484 fps=0.2 q=-0.0 q=-0.0 size=N/A time=00:00:20.16 bitrate=N/A speed=0.00777x    frame=  485 fps=0.2 q=-0.0 q=-0.0 size=N/A time=00:00:20.20 bitrate=N/A speed=0.00778x    frame=  486 fps=0.2 q=-0.0 q=-0.0 size=N/A time=00:00:20.25 bitrate=N/A speed=0.00778x    frame=  487 fps=0.2 q=-0.0 q=-0.0 size=N/A time=00:00:20.29 bitrate=N/A speed=0.00778x    frame=  488 fps=0.2 q=-0.0 q=-0.0 size=N/A time=00:00:20.33 bitrate=N/A speed=0.00778x    frame=  489 fps=0.2 q=-0.0 q=-0.0 size=N/A time=00:00:20.37 bitrate=N/A speed=0.00779x    frame=  490 fps=0.2 q=-0.0 q=-0.0 size=N/A time=00:00:20.41 bitrate=N/A speed=0.00779x    frame=  491 fps=0.2 q=-0.0 q=-0.0 size=N/A time=00:00:20.45 bitrate=N/A speed=0.00779x    frame=  492 fps=0.2 q=-0.0 q=-0.0 size=N/A time=00:00:20.50 bitrate=N/A speed=0.00779x    frame=  493 fps=0.2 q=-0.0 q=-0.0 size=N/A time=00:00:20.54 bitrate=N/A speed=0.00779x    frame=  494 fps=0.2 q=-0.0 q=-0.0 size=N/A time=00:00:20.58 bitrate=N/A speed=0.00779x    frame=  495 fps=0.2 q=-0.0 q=-0.0 size=N/A time=00:00:20.62 bitrate=N/A speed=0.0078x    frame=  496 fps=0.2 q=-0.0 q=-0.0 size=N/A time=00:00:20.66 bitrate=N/A speed=0.0078x    frame=  497 fps=0.2 q=-0.0 q=-0.0 size=N/A time=00:00:20.70 bitrate=N/A speed=0.00781x    frame=  498 fps=0.2 q=-0.0 q=-0.0 size=N/A time=00:00:20.75 bitrate=N/A speed=0.00781x    frame=  499 fps=0.2 q=-0.0 q=-0.0 size=N/A time=00:00:20.79 bitrate=N/A speed=0.00781x    frame=  500 fps=0.2 q=-0.0 q=-0.0 size=N/A time=00:00:20.83 bitrate=N/A speed=0.00781x    frame=  501 fps=0.2 q=-0.0 q=-0.0 size=N/A time=00:00:20.87 bitrate=N/A speed=0.00781x    frame=  502 fps=0.2 q=-0.0 q=-0.0 size=N/A time=00:00:20.91 bitrate=N/A speed=0.00781x    frame=  503 fps=0.2 q=-0.0 q=-0.0 size=N/A time=00:00:20.95 bitrate=N/A speed=0.00782x    frame=  504 fps=0.2 q=-0.0 q=-0.0 size=N/A time=00:00:21.00 bitrate=N/A speed=0.00782x    frame=  505 fps=0.2 q=-0.0 q=-0.0 size=N/A time=00:00:21.04 bitrate=N/A speed=0.00783x    frame=  506 fps=0.2 q=-0.0 q=-0.0 size=N/A time=00:00:21.08 bitrate=N/A speed=0.00783x    frame=  507 fps=0.2 q=-0.0 q=-0.0 size=N/A time=00:00:21.12 bitrate=N/A speed=0.00784x    frame=  508 fps=0.2 q=-0.0 q=-0.0 size=N/A time=00:00:21.16 bitrate=N/A speed=0.00784x    frame=  509 fps=0.2 q=-0.0 q=-0.0 size=N/A time=00:00:21.20 bitrate=N/A speed=0.00785x    frame=  510 fps=0.2 q=-0.0 q=-0.0 size=N/A time=00:00:21.25 bitrate=N/A speed=0.00786x    frame=  511 fps=0.2 q=-0.0 q=-0.0 size=N/A time=00:00:21.29 bitrate=N/A speed=0.00786x    frame=  512 fps=0.2 q=-0.0 q=-0.0 size=N/A time=00:00:21.33 bitrate=N/A speed=0.00787x    frame=  513 fps=0.2 q=-0.0 q=-0.0 size=N/A time=00:00:21.37 bitrate=N/A speed=0.00788x    frame=  514 fps=0.2 q=-0.0 q=-0.0 size=N/A time=00:00:21.41 bitrate=N/A speed=0.00788x    frame=  515 fps=0.2 q=-0.0 q=-0.0 size=N/A time=00:00:21.45 bitrate=N/A speed=0.00789x    frame=  516 fps=0.2 q=-0.0 q=-0.0 size=N/A time=00:00:21.50 bitrate=N/A speed=0.00789x    frame=  517 fps=0.2 q=-0.0 q=-0.0 size=N/A time=00:00:21.54 bitrate=N/A speed=0.0079x    frame=  518 fps=0.2 q=-0.0 q=-0.0 size=N/A time=00:00:21.58 bitrate=N/A speed=0.0079x    frame=  519 fps=0.2 q=-0.0 q=-0.0 size=N/A time=00:00:21.62 bitrate=N/A speed=0.00791x    frame=  520 fps=0.2 q=-0.0 q=-0.0 size=N/A time=00:00:21.66 bitrate=N/A speed=0.00791x    frame=  521 fps=0.2 q=-0.0 q=-0.0 size=N/A time=00:00:21.70 bitrate=N/A speed=0.00791x    frame=  522 fps=0.2 q=-0.0 q=-0.0 size=N/A time=00:00:21.75 bitrate=N/A speed=0.00791x    frame=  523 fps=0.2 q=-0.0 q=-0.0 size=N/A time=00:00:21.79 bitrate=N/A speed=0.0079x    frame=  524 fps=0.2 q=-0.0 q=-0.0 size=N/A time=00:00:21.83 bitrate=N/A speed=0.0079x    frame=  525 fps=0.2 q=-0.0 q=-0.0 size=N/A time=00:00:21.87 bitrate=N/A speed=0.0079x    frame=  526 fps=0.2 q=-0.0 q=-0.0 size=N/A time=00:00:21.91 bitrate=N/A speed=0.00789x    frame=  527 fps=0.2 q=-0.0 q=-0.0 size=N/A time=00:00:21.95 bitrate=N/A speed=0.00789x    frame=  528 fps=0.2 q=-0.0 q=-0.0 size=N/A time=00:00:22.00 bitrate=N/A speed=0.00789x    frame=  529 fps=0.2 q=-0.0 q=-0.0 size=N/A time=00:00:22.04 bitrate=N/A speed=0.00789x    frame=  530 fps=0.2 q=-0.0 q=-0.0 size=N/A time=00:00:22.08 bitrate=N/A speed=0.00788x    frame=  531 fps=0.2 q=-0.0 q=-0.0 size=N/A time=00:00:22.12 bitrate=N/A speed=0.00788x    frame=  532 fps=0.2 q=-0.0 q=-0.0 size=N/A time=00:00:22.16 bitrate=N/A speed=0.00788x    frame=  533 fps=0.2 q=-0.0 q=-0.0 size=N/A time=00:00:22.20 bitrate=N/A speed=0.00788x    frame=  534 fps=0.2 q=-0.0 q=-0.0 size=N/A time=00:00:22.25 bitrate=N/A speed=0.00788x    frame=  535 fps=0.2 q=-0.0 q=-0.0 size=N/A time=00:00:22.29 bitrate=N/A speed=0.00788x    frame=  536 fps=0.2 q=-0.0 q=-0.0 size=N/A time=00:00:22.33 bitrate=N/A speed=0.00788x    frame=  537 fps=0.2 q=-0.0 q=-0.0 size=N/A time=00:00:22.37 bitrate=N/A speed=0.00788x    frame=  538 fps=0.2 q=-0.0 q=-0.0 size=N/A time=00:00:22.41 bitrate=N/A speed=0.00788x    frame=  539 fps=0.2 q=-0.0 q=-0.0 size=N/A time=00:00:22.45 bitrate=N/A speed=0.00788x    frame=  540 fps=0.2 q=-0.0 q=-0.0 size=N/A time=00:00:22.50 bitrate=N/A speed=0.00788x    frame=  541 fps=0.2 q=-0.0 q=-0.0 size=N/A time=00:00:22.54 bitrate=N/A speed=0.00788x    frame=  542 fps=0.2 q=-0.0 q=-0.0 size=N/A time=00:00:22.58 bitrate=N/A speed=0.00789x    frame=  543 fps=0.2 q=-0.0 q=-0.0 size=N/A time=00:00:22.62 bitrate=N/A speed=0.00789x    frame=  544 fps=0.2 q=-0.0 q=-0.0 size=N/A time=00:00:22.66 bitrate=N/A speed=0.00789x    frame=  545 fps=0.2 q=-0.0 q=-0.0 size=N/A time=00:00:22.70 bitrate=N/A speed=0.00789x    frame=  546 fps=0.2 q=-0.0 q=-0.0 size=N/A time=00:00:22.75 bitrate=N/A speed=0.00789x    frame=  547 fps=0.2 q=-0.0 q=-0.0 size=N/A time=00:00:22.79 bitrate=N/A speed=0.00789x    frame=  548 fps=0.2 q=-0.0 q=-0.0 size=N/A time=00:00:22.83 bitrate=N/A speed=0.00789x    frame=  549 fps=0.2 q=-0.0 q=-0.0 size=N/A time=00:00:22.87 bitrate=N/A speed=0.00789x    frame=  550 fps=0.2 q=-0.0 q=-0.0 size=N/A time=00:00:22.91 bitrate=N/A speed=0.00789x    frame=  551 fps=0.2 q=-0.0 q=-0.0 size=N/A time=00:00:22.95 bitrate=N/A speed=0.00788x    frame=  552 fps=0.2 q=-0.0 q=-0.0 size=N/A time=00:00:23.00 bitrate=N/A speed=0.00788x    frame=  553 fps=0.2 q=-0.0 q=-0.0 size=N/A time=00:00:23.04 bitrate=N/A speed=0.00788x    frame=  554 fps=0.2 q=-0.0 q=-0.0 size=N/A time=00:00:23.08 bitrate=N/A speed=0.00788x    frame=  555 fps=0.2 q=-0.0 q=-0.0 size=N/A time=00:00:23.12 bitrate=N/A speed=0.00788x    frame=  556 fps=0.2 q=-0.0 q=-0.0 size=N/A time=00:00:23.16 bitrate=N/A speed=0.00787x    frame=  557 fps=0.2 q=-0.0 q=-0.0 size=N/A time=00:00:23.20 bitrate=N/A speed=0.00787x    frame=  558 fps=0.2 q=-0.0 q=-0.0 size=N/A time=00:00:23.25 bitrate=N/A speed=0.00787x    frame=  559 fps=0.2 q=-0.0 q=-0.0 size=N/A time=00:00:23.29 bitrate=N/A speed=0.00787x    frame=  560 fps=0.2 q=-0.0 q=-0.0 size=N/A time=00:00:23.33 bitrate=N/A speed=0.00787x    frame=  561 fps=0.2 q=-0.0 q=-0.0 size=N/A time=00:00:23.37 bitrate=N/A speed=0.00786x    frame=  562 fps=0.2 q=-0.0 q=-0.0 size=N/A time=00:00:23.41 bitrate=N/A speed=0.00786x    frame=  563 fps=0.2 q=-0.0 q=-0.0 size=N/A time=00:00:23.45 bitrate=N/A speed=0.00786x    frame=  564 fps=0.2 q=-0.0 q=-0.0 size=N/A time=00:00:23.50 bitrate=N/A speed=0.00786x    frame=  565 fps=0.2 q=-0.0 q=-0.0 size=N/A time=00:00:23.54 bitrate=N/A speed=0.00786x    frame=  566 fps=0.2 q=-0.0 q=-0.0 size=N/A time=00:00:23.58 bitrate=N/A speed=0.00785x    frame=  567 fps=0.2 q=-0.0 q=-0.0 size=N/A time=00:00:23.62 bitrate=N/A speed=0.00785x    frame=  568 fps=0.2 q=-0.0 q=-0.0 size=N/A time=00:00:23.66 bitrate=N/A speed=0.00785x    frame=  569 fps=0.2 q=-0.0 q=-0.0 size=N/A time=00:00:23.70 bitrate=N/A speed=0.00785x    frame=  570 fps=0.2 q=-0.0 q=-0.0 size=N/A time=00:00:23.75 bitrate=N/A speed=0.00785x    frame=  571 fps=0.2 q=-0.0 q=-0.0 size=N/A time=00:00:23.79 bitrate=N/A speed=0.00784x    frame=  572 fps=0.2 q=-0.0 q=-0.0 size=N/A time=00:00:23.83 bitrate=N/A speed=0.00784x    frame=  573 fps=0.2 q=-0.0 q=-0.0 size=N/A time=00:00:23.87 bitrate=N/A speed=0.00784x    frame=  574 fps=0.2 q=-0.0 q=-0.0 size=N/A time=00:00:23.91 bitrate=N/A speed=0.00784x    frame=  575 fps=0.2 q=-0.0 q=-0.0 size=N/A time=00:00:23.95 bitrate=N/A speed=0.00784x    frame=  576 fps=0.2 q=-0.0 q=-0.0 size=N/A time=00:00:24.00 bitrate=N/A speed=0.00783x    frame=  577 fps=0.2 q=-0.0 q=-0.0 size=N/A time=00:00:24.04 bitrate=N/A speed=0.00783x    frame=  578 fps=0.2 q=-0.0 q=-0.0 size=N/A time=00:00:24.08 bitrate=N/A speed=0.00783x    frame=  579 fps=0.2 q=-0.0 q=-0.0 size=N/A time=00:00:24.12 bitrate=N/A speed=0.00782x    frame=  580 fps=0.2 q=-0.0 q=-0.0 size=N/A time=00:00:24.16 bitrate=N/A speed=0.00781x    frame=  581 fps=0.2 q=-0.0 q=-0.0 size=N/A time=00:00:24.20 bitrate=N/A speed=0.00781x    frame=  582 fps=0.2 q=-0.0 q=-0.0 size=N/A time=00:00:24.25 bitrate=N/A speed=0.0078x    frame=  583 fps=0.2 q=-0.0 q=-0.0 size=N/A time=00:00:24.29 bitrate=N/A speed=0.00779x    frame=  584 fps=0.2 q=-0.0 q=-0.0 size=N/A time=00:00:24.33 bitrate=N/A speed=0.00779x    frame=  585 fps=0.2 q=-0.0 q=-0.0 size=N/A time=00:00:24.37 bitrate=N/A speed=0.00778x    frame=  586 fps=0.2 q=-0.0 q=-0.0 size=N/A time=00:00:24.41 bitrate=N/A speed=0.00778x    frame=  587 fps=0.2 q=-0.0 q=-0.0 size=N/A time=00:00:24.45 bitrate=N/A speed=0.00777x    frame=  588 fps=0.2 q=-0.0 q=-0.0 size=N/A time=00:00:24.50 bitrate=N/A speed=0.00777x    frame=  589 fps=0.2 q=-0.0 q=-0.0 size=N/A time=00:00:24.54 bitrate=N/A speed=0.00776x    frame=  590 fps=0.2 q=-0.0 q=-0.0 size=N/A time=00:00:24.58 bitrate=N/A speed=0.00776x    frame=  591 fps=0.2 q=-0.0 q=-0.0 size=N/A time=00:00:24.62 bitrate=N/A speed=0.00776x    frame=  592 fps=0.2 q=-0.0 q=-0.0 size=N/A time=00:00:24.66 bitrate=N/A speed=0.00775x    frame=  593 fps=0.2 q=-0.0 q=-0.0 size=N/A time=00:00:24.70 bitrate=N/A speed=0.00773x    frame=  597 fps=0.2 q=-0.0 q=-0.0 size=N/A time=00:00:24.87 bitrate=N/A speed=0.00777x    frame=  598 fps=0.2 q=-0.0 q=-0.0 size=N/A time=00:00:24.91 bitrate=N/A speed=0.00777x    frame=  599 fps=0.2 q=-0.0 q=-0.0 size=N/A time=00:00:24.95 bitrate=N/A speed=0.00777x    frame=  600 fps=0.2 q=-0.0 q=-0.0 size=N/A time=00:00:25.00 bitrate=N/A speed=0.00777x    frame=  601 fps=0.2 q=-0.0 q=-0.0 size=N/A time=00:00:25.04 bitrate=N/A speed=0.00777x    frame=  602 fps=0.2 q=-0.0 q=-0.0 size=N/A time=00:00:25.08 bitrate=N/A speed=0.00777x    frame=  603 fps=0.2 q=-0.0 q=-0.0 size=N/A time=00:00:25.12 bitrate=N/A speed=0.00777x    frame=  604 fps=0.2 q=-0.0 q=-0.0 size=N/A time=00:00:25.16 bitrate=N/A speed=0.00776x    frame=  605 fps=0.2 q=-0.0 q=-0.0 size=N/A time=00:00:25.20 bitrate=N/A speed=0.00776x    frame=  606 fps=0.2 q=-0.0 q=-0.0 size=N/A time=00:00:25.25 bitrate=N/A speed=0.00776x    frame=  607 fps=0.2 q=-0.0 q=-0.0 size=N/A time=00:00:25.29 bitrate=N/A speed=0.00775x    frame=  608 fps=0.2 q=-0.0 q=-0.0 size=N/A time=00:00:25.33 bitrate=N/A speed=0.00774x    frame=  609 fps=0.2 q=-0.0 q=-0.0 size=N/A time=00:00:25.37 bitrate=N/A speed=0.00774x    frame=  610 fps=0.2 q=-0.0 q=-0.0 size=N/A time=00:00:25.41 bitrate=N/A speed=0.00774x    frame=  611 fps=0.2 q=-0.0 q=-0.0 size=N/A time=00:00:25.45 bitrate=N/A speed=0.00774x    frame=  612 fps=0.2 q=-0.0 q=-0.0 size=N/A time=00:00:25.50 bitrate=N/A speed=0.00774x    frame=  613 fps=0.2 q=-0.0 q=-0.0 size=N/A time=00:00:25.54 bitrate=N/A speed=0.00774x    frame=  614 fps=0.2 q=-0.0 q=-0.0 size=N/A time=00:00:25.58 bitrate=N/A speed=0.00774x    frame=  615 fps=0.2 q=-0.0 q=-0.0 size=N/A time=00:00:25.62 bitrate=N/A speed=0.00774x    frame=  616 fps=0.2 q=-0.0 q=-0.0 size=N/A time=00:00:25.66 bitrate=N/A speed=0.00774x    frame=  617 fps=0.2 q=-0.0 q=-0.0 size=N/A time=00:00:25.70 bitrate=N/A speed=0.00773x    frame=  618 fps=0.2 q=-0.0 q=-0.0 size=N/A time=00:00:25.75 bitrate=N/A speed=0.00773x    frame=  619 fps=0.2 q=-0.0 q=-0.0 size=N/A time=00:00:25.79 bitrate=N/A speed=0.00773x    frame=  620 fps=0.2 q=-0.0 q=-0.0 size=N/A time=00:00:25.83 bitrate=N/A speed=0.00773x    frame=  621 fps=0.2 q=-0.0 q=-0.0 size=N/A time=00:00:25.87 bitrate=N/A speed=0.00773x    frame=  622 fps=0.2 q=-0.0 q=-0.0 size=N/A time=00:00:25.91 bitrate=N/A speed=0.00773x    frame=  623 fps=0.2 q=-0.0 q=-0.0 size=N/A time=00:00:25.95 bitrate=N/A speed=0.00773x    frame=  624 fps=0.2 q=-0.0 q=-0.0 size=N/A time=00:00:26.00 bitrate=N/A speed=0.00773x    frame=  625 fps=0.2 q=-0.0 q=-0.0 size=N/A time=00:00:26.04 bitrate=N/A speed=0.00773x    frame=  626 fps=0.2 q=-0.0 q=-0.0 size=N/A time=00:00:26.08 bitrate=N/A speed=0.00773x    frame=  627 fps=0.2 q=-0.0 q=-0.0 size=N/A time=00:00:26.12 bitrate=N/A speed=0.00773x    frame=  628 fps=0.2 q=-0.0 q=-0.0 size=N/A time=00:00:26.16 bitrate=N/A speed=0.00773x    frame=  629 fps=0.2 q=-0.0 q=-0.0 size=N/A time=00:00:26.20 bitrate=N/A speed=0.00773x    frame=  630 fps=0.2 q=-0.0 q=-0.0 size=N/A time=00:00:26.25 bitrate=N/A speed=0.00773x    frame=  631 fps=0.2 q=-0.0 q=-0.0 size=N/A time=00:00:26.29 bitrate=N/A speed=0.00773x    frame=  632 fps=0.2 q=-0.0 q=-0.0 size=N/A time=00:00:26.33 bitrate=N/A speed=0.00773x    frame=  633 fps=0.2 q=-0.0 q=-0.0 size=N/A time=00:00:26.37 bitrate=N/A speed=0.00773x    frame=  634 fps=0.2 q=-0.0 q=-0.0 size=N/A time=00:00:26.41 bitrate=N/A speed=0.00773x    frame=  635 fps=0.2 q=-0.0 q=-0.0 size=N/A time=00:00:26.45 bitrate=N/A speed=0.00773x    frame=  636 fps=0.2 q=-0.0 q=-0.0 size=N/A time=00:00:26.50 bitrate=N/A speed=0.00773x    frame=  637 fps=0.2 q=-0.0 q=-0.0 size=N/A time=00:00:26.54 bitrate=N/A speed=0.00773x    frame=  638 fps=0.2 q=-0.0 q=-0.0 size=N/A time=00:00:26.58 bitrate=N/A speed=0.00773x    frame=  639 fps=0.2 q=-0.0 q=-0.0 size=N/A time=00:00:26.62 bitrate=N/A speed=0.00773x    frame=  640 fps=0.2 q=-0.0 q=-0.0 size=N/A time=00:00:26.66 bitrate=N/A speed=0.00772x    frame=  641 fps=0.2 q=-0.0 q=-0.0 size=N/A time=00:00:26.70 bitrate=N/A speed=0.00772x    frame=  642 fps=0.2 q=-0.0 q=-0.0 size=N/A time=00:00:26.75 bitrate=N/A speed=0.00772x    frame=  643 fps=0.2 q=-0.0 q=-0.0 size=N/A time=00:00:26.79 bitrate=N/A speed=0.00772x    frame=  644 fps=0.2 q=-0.0 q=-0.0 size=N/A time=00:00:26.83 bitrate=N/A speed=0.00772x    frame=  645 fps=0.2 q=-0.0 q=-0.0 size=N/A time=00:00:26.87 bitrate=N/A speed=0.00771x    frame=  646 fps=0.2 q=-0.0 q=-0.0 size=N/A time=00:00:26.91 bitrate=N/A speed=0.00771x    frame=  647 fps=0.2 q=-0.0 q=-0.0 size=N/A time=00:00:26.95 bitrate=N/A speed=0.00771x    frame=  648 fps=0.2 q=-0.0 q=-0.0 size=N/A time=00:00:27.00 bitrate=N/A speed=0.00771x    frame=  649 fps=0.2 q=-0.0 q=-0.0 size=N/A time=00:00:27.04 bitrate=N/A speed=0.00771x    frame=  650 fps=0.2 q=-0.0 q=-0.0 size=N/A time=00:00:27.08 bitrate=N/A speed=0.00771x    frame=  651 fps=0.2 q=-0.0 q=-0.0 size=N/A time=00:00:27.12 bitrate=N/A speed=0.0077x    frame=  652 fps=0.2 q=-0.0 q=-0.0 size=N/A time=00:00:27.16 bitrate=N/A speed=0.0077x    frame=  653 fps=0.2 q=-0.0 q=-0.0 size=N/A time=00:00:27.20 bitrate=N/A speed=0.00769x    frame=  654 fps=0.2 q=-0.0 q=-0.0 size=N/A time=00:00:27.25 bitrate=N/A speed=0.00768x    frame=  655 fps=0.2 q=-0.0 q=-0.0 size=N/A time=00:00:27.29 bitrate=N/A speed=0.00766x    frame=  656 fps=0.2 q=-0.0 q=-0.0 size=N/A time=00:00:27.33 bitrate=N/A speed=0.00765x    frame=  657 fps=0.2 q=-0.0 q=-0.0 size=N/A time=00:00:27.37 bitrate=N/A speed=0.00764x    frame=  658 fps=0.2 q=-0.0 q=-0.0 size=N/A time=00:00:27.41 bitrate=N/A speed=0.00764x    frame=  659 fps=0.2 q=-0.0 q=-0.0 size=N/A time=00:00:27.45 bitrate=N/A speed=0.00764x    frame=  660 fps=0.2 q=-0.0 q=-0.0 size=N/A time=00:00:27.50 bitrate=N/A speed=0.00763x    frame=  661 fps=0.2 q=-0.0 q=-0.0 size=N/A time=00:00:27.54 bitrate=N/A speed=0.00763x    frame=  662 fps=0.2 q=-0.0 q=-0.0 size=N/A time=00:00:27.58 bitrate=N/A speed=0.00762x    frame=  663 fps=0.2 q=-0.0 q=-0.0 size=N/A time=00:00:27.62 bitrate=N/A speed=0.00762x    frame=  664 fps=0.2 q=-0.0 q=-0.0 size=N/A time=00:00:27.66 bitrate=N/A speed=0.00762x    frame=  665 fps=0.2 q=-0.0 q=-0.0 size=N/A time=00:00:27.70 bitrate=N/A speed=0.00762x    frame=  666 fps=0.2 q=-0.0 q=-0.0 size=N/A time=00:00:27.75 bitrate=N/A speed=0.00762x    frame=  667 fps=0.2 q=-0.0 q=-0.0 size=N/A time=00:00:27.79 bitrate=N/A speed=0.00761x    frame=  668 fps=0.2 q=-0.0 q=-0.0 size=N/A time=00:00:27.83 bitrate=N/A speed=0.00761x    frame=  670 fps=0.2 q=-0.0 q=-0.0 size=N/A time=00:00:27.91 bitrate=N/A speed=0.00762x    frame=  671 fps=0.2 q=-0.0 q=-0.0 size=N/A time=00:00:27.95 bitrate=N/A speed=0.00762x    frame=  672 fps=0.2 q=-0.0 q=-0.0 size=N/A time=00:00:28.00 bitrate=N/A speed=0.00763x    frame=  673 fps=0.2 q=-0.0 q=-0.0 size=N/A time=00:00:28.04 bitrate=N/A speed=0.00763x    frame=  674 fps=0.2 q=-0.0 q=-0.0 size=N/A time=00:00:28.08 bitrate=N/A speed=0.00763x    frame=  675 fps=0.2 q=-0.0 q=-0.0 size=N/A time=00:00:28.12 bitrate=N/A speed=0.00763x    frame=  676 fps=0.2 q=-0.0 q=-0.0 size=N/A time=00:00:28.16 bitrate=N/A speed=0.00763x    frame=  677 fps=0.2 q=-0.0 q=-0.0 size=N/A time=00:00:28.20 bitrate=N/A speed=0.00763x    frame=  678 fps=0.2 q=-0.0 q=-0.0 size=N/A time=00:00:28.25 bitrate=N/A speed=0.00763x    frame=  679 fps=0.2 q=-0.0 q=-0.0 size=N/A time=00:00:28.29 bitrate=N/A speed=0.00763x    frame=  680 fps=0.2 q=-0.0 q=-0.0 size=N/A time=00:00:28.33 bitrate=N/A speed=0.00763x    frame=  681 fps=0.2 q=-0.0 q=-0.0 size=N/A time=00:00:28.37 bitrate=N/A speed=0.00763x    frame=  682 fps=0.2 q=-0.0 q=-0.0 size=N/A time=00:00:28.41 bitrate=N/A speed=0.00764x    frame=  683 fps=0.2 q=-0.0 q=-0.0 size=N/A time=00:00:28.45 bitrate=N/A speed=0.00764x    frame=  684 fps=0.2 q=-0.0 q=-0.0 size=N/A time=00:00:28.50 bitrate=N/A speed=0.00764x    frame=  685 fps=0.2 q=-0.0 q=-0.0 size=N/A time=00:00:28.54 bitrate=N/A speed=0.00764x    frame=  686 fps=0.2 q=-0.0 q=-0.0 size=N/A time=00:00:28.58 bitrate=N/A speed=0.00764x    frame=  687 fps=0.2 q=-0.0 q=-0.0 size=N/A time=00:00:28.62 bitrate=N/A speed=0.00764x    frame=  688 fps=0.2 q=-0.0 q=-0.0 size=N/A time=00:00:28.66 bitrate=N/A speed=0.00764x    frame=  689 fps=0.2 q=-0.0 q=-0.0 size=N/A time=00:00:28.70 bitrate=N/A speed=0.00764x    frame=  690 fps=0.2 q=-0.0 q=-0.0 size=N/A time=00:00:28.75 bitrate=N/A speed=0.00763x    frame=  691 fps=0.2 q=-0.0 q=-0.0 size=N/A time=00:00:28.79 bitrate=N/A speed=0.00763x    frame=  692 fps=0.2 q=-0.0 q=-0.0 size=N/A time=00:00:28.83 bitrate=N/A speed=0.00763x    frame=  693 fps=0.2 q=-0.0 q=-0.0 size=N/A time=00:00:28.87 bitrate=N/A speed=0.00763x    frame=  694 fps=0.2 q=-0.0 q=-0.0 size=N/A time=00:00:28.91 bitrate=N/A speed=0.00762x    frame=  695 fps=0.2 q=-0.0 q=-0.0 size=N/A time=00:00:28.95 bitrate=N/A speed=0.00762x    frame=  696 fps=0.2 q=-0.0 q=-0.0 size=N/A time=00:00:29.00 bitrate=N/A speed=0.00761x    frame=  697 fps=0.2 q=-0.0 q=-0.0 size=N/A time=00:00:29.04 bitrate=N/A speed=0.00761x    frame=  698 fps=0.2 q=-0.0 q=-0.0 size=N/A time=00:00:29.08 bitrate=N/A speed=0.00761x    frame=  699 fps=0.2 q=-0.0 q=-0.0 size=N/A time=00:00:29.12 bitrate=N/A speed=0.00761x    frame=  700 fps=0.2 q=-0.0 q=-0.0 size=N/A time=00:00:29.16 bitrate=N/A speed=0.0076x    frame=  701 fps=0.2 q=-0.0 q=-0.0 size=N/A time=00:00:29.20 bitrate=N/A speed=0.0076x    frame=  702 fps=0.2 q=-0.0 q=-0.0 size=N/A time=00:00:29.25 bitrate=N/A speed=0.0076x    frame=  703 fps=0.2 q=-0.0 q=-0.0 size=N/A time=00:00:29.29 bitrate=N/A speed=0.0076x    frame=  704 fps=0.2 q=-0.0 q=-0.0 size=N/A time=00:00:29.33 bitrate=N/A speed=0.00761x    frame=  705 fps=0.2 q=-0.0 q=-0.0 size=N/A time=00:00:29.37 bitrate=N/A speed=0.00761x    frame=  706 fps=0.2 q=-0.0 q=-0.0 size=N/A time=00:00:29.41 bitrate=N/A speed=0.00761x    frame=  707 fps=0.2 q=-0.0 q=-0.0 size=N/A time=00:00:29.45 bitrate=N/A speed=0.00761x    frame=  708 fps=0.2 q=-0.0 q=-0.0 size=N/A time=00:00:29.50 bitrate=N/A speed=0.0076x    frame=  709 fps=0.2 q=-0.0 q=-0.0 size=N/A time=00:00:29.54 bitrate=N/A speed=0.0076x    frame=  710 fps=0.2 q=-0.0 q=-0.0 size=N/A time=00:00:29.58 bitrate=N/A speed=0.0076x    frame=  711 fps=0.2 q=-0.0 q=-0.0 size=N/A time=00:00:29.62 bitrate=N/A speed=0.0076x    frame=  712 fps=0.2 q=-0.0 q=-0.0 size=N/A time=00:00:29.66 bitrate=N/A speed=0.00759x    frame=  713 fps=0.2 q=-0.0 q=-0.0 size=N/A time=00:00:29.70 bitrate=N/A speed=0.0076x    frame=  714 fps=0.2 q=-0.0 q=-0.0 size=N/A time=00:00:29.75 bitrate=N/A speed=0.0076x    frame=  715 fps=0.2 q=-0.0 q=-0.0 size=N/A time=00:00:29.79 bitrate=N/A speed=0.0076x    frame=  716 fps=0.2 q=-0.0 q=-0.0 size=N/A time=00:00:29.83 bitrate=N/A speed=0.0076x    frame=  717 fps=0.2 q=-0.0 q=-0.0 size=N/A time=00:00:29.87 bitrate=N/A speed=0.0076x    frame=  718 fps=0.2 q=-0.0 q=-0.0 size=N/A time=00:00:29.91 bitrate=N/A speed=0.0076x    frame=  719 fps=0.2 q=-0.0 q=-0.0 size=N/A time=00:00:29.95 bitrate=N/A speed=0.00761x    frame=  720 fps=0.2 q=-0.0 q=-0.0 size=N/A time=00:00:30.00 bitrate=N/A speed=0.00761x    frame=  721 fps=0.2 q=-0.0 q=-0.0 size=N/A time=00:00:30.04 bitrate=N/A speed=0.00761x    frame=  722 fps=0.2 q=-0.0 q=-0.0 size=N/A time=00:00:30.08 bitrate=N/A speed=0.00762x    frame=  723 fps=0.2 q=-0.0 q=-0.0 size=N/A time=00:00:30.12 bitrate=N/A speed=0.00762x    frame=  724 fps=0.2 q=-0.0 q=-0.0 size=N/A time=00:00:30.16 bitrate=N/A speed=0.00763x    frame=  725 fps=0.2 q=-0.0 q=-0.0 size=N/A time=00:00:30.20 bitrate=N/A speed=0.00763x    frame=  726 fps=0.2 q=-0.0 q=-0.0 size=N/A time=00:00:30.25 bitrate=N/A speed=0.00763x    frame=  727 fps=0.2 q=-0.0 q=-0.0 size=N/A time=00:00:30.29 bitrate=N/A speed=0.00763x    frame=  728 fps=0.2 q=-0.0 q=-0.0 size=N/A time=00:00:30.33 bitrate=N/A speed=0.00764x    frame=  729 fps=0.2 q=-0.0 q=-0.0 size=N/A time=00:00:30.37 bitrate=N/A speed=0.00765x    frame=  730 fps=0.2 q=-0.0 q=-0.0 size=N/A time=00:00:30.41 bitrate=N/A speed=0.00765x    frame=  731 fps=0.2 q=-0.0 q=-0.0 size=N/A time=00:00:30.45 bitrate=N/A speed=0.00766x    frame=  732 fps=0.2 q=-0.0 q=-0.0 size=N/A time=00:00:30.50 bitrate=N/A speed=0.00766x    frame=  733 fps=0.2 q=-0.0 q=-0.0 size=N/A time=00:00:30.54 bitrate=N/A speed=0.00767x    frame=  734 fps=0.2 q=-0.0 q=-0.0 size=N/A time=00:00:30.58 bitrate=N/A speed=0.00767x    frame=  735 fps=0.2 q=-0.0 q=-0.0 size=N/A time=00:00:30.62 bitrate=N/A speed=0.00768x    frame=  736 fps=0.2 q=-0.0 q=-0.0 size=N/A time=00:00:30.66 bitrate=N/A speed=0.00768x    frame=  737 fps=0.2 q=-0.0 q=-0.0 size=N/A time=00:00:30.70 bitrate=N/A speed=0.00769x    frame=  738 fps=0.2 q=-0.0 q=-0.0 size=N/A time=00:00:30.75 bitrate=N/A speed=0.00769x    frame=  739 fps=0.2 q=-0.0 q=-0.0 size=N/A time=00:00:30.79 bitrate=N/A speed=0.0077x    frame=  740 fps=0.2 q=-0.0 q=-0.0 size=N/A time=00:00:30.83 bitrate=N/A speed=0.0077x    frame=  741 fps=0.2 q=-0.0 q=-0.0 size=N/A time=00:00:30.87 bitrate=N/A speed=0.00771x    frame=  742 fps=0.2 q=-0.0 q=-0.0 size=N/A time=00:00:30.91 bitrate=N/A speed=0.00771x    frame=  743 fps=0.2 q=-0.0 q=-0.0 size=N/A time=00:00:30.95 bitrate=N/A speed=0.00771x    frame=  744 fps=0.2 q=-0.0 q=-0.0 size=N/A time=00:00:31.00 bitrate=N/A speed=0.00772x    frame=  745 fps=0.2 q=-0.0 q=-0.0 size=N/A time=00:00:31.04 bitrate=N/A speed=0.00772x    frame=  746 fps=0.2 q=-0.0 q=-0.0 size=N/A time=00:00:31.08 bitrate=N/A speed=0.00772x    frame=  747 fps=0.2 q=-0.0 q=-0.0 size=N/A time=00:00:31.12 bitrate=N/A speed=0.00772x    frame=  748 fps=0.2 q=-0.0 q=-0.0 size=N/A time=00:00:31.16 bitrate=N/A speed=0.00773x    frame=  749 fps=0.2 q=-0.0 q=-0.0 size=N/A time=00:00:31.20 bitrate=N/A speed=0.00773x    frame=  750 fps=0.2 q=-0.0 q=-0.0 size=N/A time=00:00:31.25 bitrate=N/A speed=0.00774x    frame=  751 fps=0.2 q=-0.0 q=-0.0 size=N/A time=00:00:31.29 bitrate=N/A speed=0.00774x    frame=  752 fps=0.2 q=-0.0 q=-0.0 size=N/A time=00:00:31.33 bitrate=N/A speed=0.00775x    frame=  753 fps=0.2 q=-0.0 q=-0.0 size=N/A time=00:00:31.37 bitrate=N/A speed=0.00775x    frame=  754 fps=0.2 q=-0.0 q=-0.0 size=N/A time=00:00:31.41 bitrate=N/A speed=0.00776x    frame=  755 fps=0.2 q=-0.0 q=-0.0 size=N/A time=00:00:31.45 bitrate=N/A speed=0.00776x    frame=  756 fps=0.2 q=-0.0 q=-0.0 size=N/A time=00:00:31.50 bitrate=N/A speed=0.00776x    frame=  757 fps=0.2 q=-0.0 q=-0.0 size=N/A time=00:00:31.54 bitrate=N/A speed=0.00777x    frame=  758 fps=0.2 q=-0.0 q=-0.0 size=N/A time=00:00:31.58 bitrate=N/A speed=0.00777x    frame=  759 fps=0.2 q=-0.0 q=-0.0 size=N/A time=00:00:31.62 bitrate=N/A speed=0.00778x    frame=  760 fps=0.2 q=-0.0 q=-0.0 size=N/A time=00:00:31.66 bitrate=N/A speed=0.00778x    frame=  761 fps=0.2 q=-0.0 q=-0.0 size=N/A time=00:00:31.70 bitrate=N/A speed=0.00778x    frame=  762 fps=0.2 q=-0.0 q=-0.0 size=N/A time=00:00:31.75 bitrate=N/A speed=0.00779x    frame=  763 fps=0.2 q=-0.0 q=-0.0 size=N/A time=00:00:31.79 bitrate=N/A speed=0.00779x    frame=  764 fps=0.2 q=-0.0 q=-0.0 size=N/A time=00:00:31.83 bitrate=N/A speed=0.0078x    frame=  765 fps=0.2 q=-0.0 q=-0.0 size=N/A time=00:00:31.87 bitrate=N/A speed=0.0078x    frame=  766 fps=0.2 q=-0.0 q=-0.0 size=N/A time=00:00:31.91 bitrate=N/A speed=0.00781x    frame=  767 fps=0.2 q=-0.0 q=-0.0 size=N/A time=00:00:31.95 bitrate=N/A speed=0.00781x    frame=  768 fps=0.2 q=-0.0 q=-0.0 size=N/A time=00:00:32.00 bitrate=N/A speed=0.00782x    frame=  769 fps=0.2 q=-0.0 q=-0.0 size=N/A time=00:00:32.04 bitrate=N/A speed=0.00782x    frame=  770 fps=0.2 q=-0.0 q=-0.0 size=N/A time=00:00:32.08 bitrate=N/A speed=0.00783x    frame=  771 fps=0.2 q=-0.0 q=-0.0 size=N/A time=00:00:32.12 bitrate=N/A speed=0.00783x    frame=  772 fps=0.2 q=-0.0 q=-0.0 size=N/A time=00:00:32.16 bitrate=N/A speed=0.00784x    frame=  773 fps=0.2 q=-0.0 q=-0.0 size=N/A time=00:00:32.20 bitrate=N/A speed=0.00784x    frame=  774 fps=0.2 q=-0.0 q=-0.0 size=N/A time=00:00:32.25 bitrate=N/A speed=0.00785x    frame=  775 fps=0.2 q=-0.0 q=-0.0 size=N/A time=00:00:32.29 bitrate=N/A speed=0.00785x    frame=  776 fps=0.2 q=-0.0 q=-0.0 size=N/A time=00:00:32.33 bitrate=N/A speed=0.00786x    frame=  777 fps=0.2 q=-0.0 q=-0.0 size=N/A time=00:00:32.37 bitrate=N/A speed=0.00786x    frame=  778 fps=0.2 q=-0.0 q=-0.0 size=N/A time=00:00:32.41 bitrate=N/A speed=0.00787x    frame=  779 fps=0.2 q=-0.0 q=-0.0 size=N/A time=00:00:32.45 bitrate=N/A speed=0.00787x    frame=  780 fps=0.2 q=-0.0 q=-0.0 size=N/A time=00:00:32.50 bitrate=N/A speed=0.00788x    frame=  781 fps=0.2 q=-0.0 q=-0.0 size=N/A time=00:00:32.54 bitrate=N/A speed=0.00788x    frame=  782 fps=0.2 q=-0.0 q=-0.0 size=N/A time=00:00:32.58 bitrate=N/A speed=0.00789x    frame=  783 fps=0.2 q=-0.0 q=-0.0 size=N/A time=00:00:32.62 bitrate=N/A speed=0.00789x    frame=  784 fps=0.2 q=-0.0 q=-0.0 size=N/A time=00:00:32.66 bitrate=N/A speed=0.00789x    frame=  785 fps=0.2 q=-0.0 q=-0.0 size=N/A time=00:00:32.70 bitrate=N/A speed=0.0079x    frame=  786 fps=0.2 q=-0.0 q=-0.0 size=N/A time=00:00:32.75 bitrate=N/A speed=0.0079x    frame=  787 fps=0.2 q=-0.0 q=-0.0 size=N/A time=00:00:32.79 bitrate=N/A speed=0.00791x    frame=  788 fps=0.2 q=-0.0 q=-0.0 size=N/A time=00:00:32.83 bitrate=N/A speed=0.00791x    frame=  789 fps=0.2 q=-0.0 q=-0.0 size=N/A time=00:00:32.87 bitrate=N/A speed=0.00791x    frame=  790 fps=0.2 q=-0.0 q=-0.0 size=N/A time=00:00:32.91 bitrate=N/A speed=0.00792x    frame=  791 fps=0.2 q=-0.0 q=-0.0 size=N/A time=00:00:32.95 bitrate=N/A speed=0.00792x    frame=  792 fps=0.2 q=-0.0 q=-0.0 size=N/A time=00:00:33.00 bitrate=N/A speed=0.00793x    frame=  793 fps=0.2 q=-0.0 q=-0.0 size=N/A time=00:00:33.04 bitrate=N/A speed=0.00793x    frame=  794 fps=0.2 q=-0.0 q=-0.0 size=N/A time=00:00:33.08 bitrate=N/A speed=0.00793x    frame=  795 fps=0.2 q=-0.0 q=-0.0 size=N/A time=00:00:33.12 bitrate=N/A speed=0.00793x    frame=  796 fps=0.2 q=-0.0 q=-0.0 size=N/A time=00:00:33.16 bitrate=N/A speed=0.00793x    frame=  797 fps=0.2 q=-0.0 q=-0.0 size=N/A time=00:00:33.20 bitrate=N/A speed=0.00793x    frame=  798 fps=0.2 q=-0.0 q=-0.0 size=N/A time=00:00:33.25 bitrate=N/A speed=0.00793x    frame=  799 fps=0.2 q=-0.0 q=-0.0 size=N/A time=00:00:33.29 bitrate=N/A speed=0.00794x    frame=  800 fps=0.2 q=-0.0 q=-0.0 size=N/A time=00:00:33.33 bitrate=N/A speed=0.00794x    frame=  801 fps=0.2 q=-0.0 q=-0.0 size=N/A time=00:00:33.37 bitrate=N/A speed=0.00794x    frame=  802 fps=0.2 q=-0.0 q=-0.0 size=N/A time=00:00:33.41 bitrate=N/A speed=0.00795x    frame=  803 fps=0.2 q=-0.0 q=-0.0 size=N/A time=00:00:33.45 bitrate=N/A speed=0.00795x    frame=  804 fps=0.2 q=-0.0 q=-0.0 size=N/A time=00:00:33.50 bitrate=N/A speed=0.00795x    frame=  805 fps=0.2 q=-0.0 q=-0.0 size=N/A time=00:00:33.54 bitrate=N/A speed=0.00796x    frame=  806 fps=0.2 q=-0.0 q=-0.0 size=N/A time=00:00:33.58 bitrate=N/A speed=0.00796x    frame=  807 fps=0.2 q=-0.0 q=-0.0 size=N/A time=00:00:33.62 bitrate=N/A speed=0.00797x    frame=  808 fps=0.2 q=-0.0 q=-0.0 size=N/A time=00:00:33.66 bitrate=N/A speed=0.00797x    frame=  809 fps=0.2 q=-0.0 q=-0.0 size=N/A time=00:00:33.70 bitrate=N/A speed=0.00797x    frame=  810 fps=0.2 q=-0.0 q=-0.0 size=N/A time=00:00:33.75 bitrate=N/A speed=0.00798x    frame=  811 fps=0.2 q=-0.0 q=-0.0 size=N/A time=00:00:33.79 bitrate=N/A speed=0.00798x    frame=  812 fps=0.2 q=-0.0 q=-0.0 size=N/A time=00:00:33.83 bitrate=N/A speed=0.00798x    frame=  813 fps=0.2 q=-0.0 q=-0.0 size=N/A time=00:00:33.87 bitrate=N/A speed=0.00799x    frame=  814 fps=0.2 q=-0.0 q=-0.0 size=N/A time=00:00:33.91 bitrate=N/A speed=0.00799x    frame=  815 fps=0.2 q=-0.0 q=-0.0 size=N/A time=00:00:33.95 bitrate=N/A speed=0.00799x    frame=  816 fps=0.2 q=-0.0 q=-0.0 size=N/A time=00:00:34.00 bitrate=N/A speed=0.008x    frame=  817 fps=0.2 q=-0.0 q=-0.0 size=N/A time=00:00:34.04 bitrate=N/A speed=0.008x    frame=  818 fps=0.2 q=-0.0 q=-0.0 size=N/A time=00:00:34.08 bitrate=N/A speed=0.00801x    frame=  819 fps=0.2 q=-0.0 q=-0.0 size=N/A time=00:00:34.12 bitrate=N/A speed=0.00801x    frame=  820 fps=0.2 q=-0.0 q=-0.0 size=N/A time=00:00:34.16 bitrate=N/A speed=0.00801x    frame=  821 fps=0.2 q=-0.0 q=-0.0 size=N/A time=00:00:34.20 bitrate=N/A speed=0.00802x    frame=  822 fps=0.2 q=-0.0 q=-0.0 size=N/A time=00:00:34.25 bitrate=N/A speed=0.00802x    frame=  823 fps=0.2 q=-0.0 q=-0.0 size=N/A time=00:00:34.29 bitrate=N/A speed=0.00802x    frame=  824 fps=0.2 q=-0.0 q=-0.0 size=N/A time=00:00:34.33 bitrate=N/A speed=0.00803x    frame=  825 fps=0.2 q=-0.0 q=-0.0 size=N/A time=00:00:34.37 bitrate=N/A speed=0.00803x    frame=  826 fps=0.2 q=-0.0 q=-0.0 size=N/A time=00:00:34.41 bitrate=N/A speed=0.00803x    frame=  827 fps=0.2 q=-0.0 q=-0.0 size=N/A time=00:00:34.45 bitrate=N/A speed=0.00803x    frame=  828 fps=0.2 q=-0.0 q=-0.0 size=N/A time=00:00:34.50 bitrate=N/A speed=0.00804x    frame=  829 fps=0.2 q=-0.0 q=-0.0 size=N/A time=00:00:34.54 bitrate=N/A speed=0.00804x    frame=  830 fps=0.2 q=-0.0 q=-0.0 size=N/A time=00:00:34.58 bitrate=N/A speed=0.00804x    frame=  831 fps=0.2 q=-0.0 q=-0.0 size=N/A time=00:00:34.62 bitrate=N/A speed=0.00805x    frame=  832 fps=0.2 q=-0.0 q=-0.0 size=N/A time=00:00:34.66 bitrate=N/A speed=0.00805x    frame=  833 fps=0.2 q=-0.0 q=-0.0 size=N/A time=00:00:34.70 bitrate=N/A speed=0.00805x    frame=  834 fps=0.2 q=-0.0 q=-0.0 size=N/A time=00:00:34.75 bitrate=N/A speed=0.00806x    frame=  835 fps=0.2 q=-0.0 q=-0.0 size=N/A time=00:00:34.79 bitrate=N/A speed=0.00806x    frame=  836 fps=0.2 q=-0.0 q=-0.0 size=N/A time=00:00:34.83 bitrate=N/A speed=0.00807x    frame=  837 fps=0.2 q=-0.0 q=-0.0 size=N/A time=00:00:34.87 bitrate=N/A speed=0.00807x    frame=  838 fps=0.2 q=-0.0 q=-0.0 size=N/A time=00:00:34.91 bitrate=N/A speed=0.00807x    frame=  839 fps=0.2 q=-0.0 q=-0.0 size=N/A time=00:00:34.95 bitrate=N/A speed=0.00808x    frame=  840 fps=0.2 q=-0.0 q=-0.0 size=N/A time=00:00:35.00 bitrate=N/A speed=0.00808x    frame=  841 fps=0.2 q=-0.0 q=-0.0 size=N/A time=00:00:35.04 bitrate=N/A speed=0.00808x    frame=  842 fps=0.2 q=-0.0 q=-0.0 size=N/A time=00:00:35.08 bitrate=N/A speed=0.00809x    frame=  843 fps=0.2 q=-0.0 q=-0.0 size=N/A time=00:00:35.12 bitrate=N/A speed=0.00809x    frame=  844 fps=0.2 q=-0.0 q=-0.0 size=N/A time=00:00:35.16 bitrate=N/A speed=0.0081x    frame=  845 fps=0.2 q=-0.0 q=-0.0 size=N/A time=00:00:35.20 bitrate=N/A speed=0.0081x    frame=  846 fps=0.2 q=-0.0 q=-0.0 size=N/A time=00:00:35.25 bitrate=N/A speed=0.0081x    frame=  847 fps=0.2 q=-0.0 q=-0.0 size=N/A time=00:00:35.29 bitrate=N/A speed=0.00811x    frame=  848 fps=0.2 q=-0.0 q=-0.0 size=N/A time=00:00:35.33 bitrate=N/A speed=0.00811x    frame=  849 fps=0.2 q=-0.0 q=-0.0 size=N/A time=00:00:35.37 bitrate=N/A speed=0.00812x    frame=  850 fps=0.2 q=-0.0 q=-0.0 size=N/A time=00:00:35.41 bitrate=N/A speed=0.00812x    frame=  851 fps=0.2 q=-0.0 q=-0.0 size=N/A time=00:00:35.45 bitrate=N/A speed=0.00812x    frame=  852 fps=0.2 q=-0.0 q=-0.0 size=N/A time=00:00:35.50 bitrate=N/A speed=0.00813x    frame=  853 fps=0.2 q=-0.0 q=-0.0 size=N/A time=00:00:35.54 bitrate=N/A speed=0.00813x    frame=  854 fps=0.2 q=-0.0 q=-0.0 size=N/A time=00:00:35.58 bitrate=N/A speed=0.00813x    frame=  855 fps=0.2 q=-0.0 q=-0.0 size=N/A time=00:00:35.62 bitrate=N/A speed=0.00813x    frame=  856 fps=0.2 q=-0.0 q=-0.0 size=N/A time=00:00:35.66 bitrate=N/A speed=0.00813x    frame=  857 fps=0.2 q=-0.0 q=-0.0 size=N/A time=00:00:35.70 bitrate=N/A speed=0.00814x    frame=  858 fps=0.2 q=-0.0 q=-0.0 size=N/A time=00:00:35.75 bitrate=N/A speed=0.00814x    frame=  859 fps=0.2 q=-0.0 q=-0.0 size=N/A time=00:00:35.79 bitrate=N/A speed=0.00814x    frame=  860 fps=0.2 q=-0.0 q=-0.0 size=N/A time=00:00:35.83 bitrate=N/A speed=0.00814x    frame=  861 fps=0.2 q=-0.0 q=-0.0 size=N/A time=00:00:35.87 bitrate=N/A speed=0.00815x    frame=  862 fps=0.2 q=-0.0 q=-0.0 size=N/A time=00:00:35.91 bitrate=N/A speed=0.00815x    frame=  863 fps=0.2 q=-0.0 q=-0.0 size=N/A time=00:00:35.95 bitrate=N/A speed=0.00815x    frame=  864 fps=0.2 q=-0.0 q=-0.0 size=N/A time=00:00:36.00 bitrate=N/A speed=0.00815x    frame=  865 fps=0.2 q=-0.0 q=-0.0 size=N/A time=00:00:36.04 bitrate=N/A speed=0.00816x    frame=  866 fps=0.2 q=-0.0 q=-0.0 size=N/A time=00:00:36.08 bitrate=N/A speed=0.00816x    frame=  867 fps=0.2 q=-0.0 q=-0.0 size=N/A time=00:00:36.12 bitrate=N/A speed=0.00816x    frame=  868 fps=0.2 q=-0.0 q=-0.0 size=N/A time=00:00:36.16 bitrate=N/A speed=0.00816x    frame=  869 fps=0.2 q=-0.0 q=-0.0 size=N/A time=00:00:36.20 bitrate=N/A speed=0.00817x    frame=  870 fps=0.2 q=-0.0 q=-0.0 size=N/A time=00:00:36.25 bitrate=N/A speed=0.00817x    frame=  871 fps=0.2 q=-0.0 q=-0.0 size=N/A time=00:00:36.29 bitrate=N/A speed=0.00817x    frame=  872 fps=0.2 q=-0.0 q=-0.0 size=N/A time=00:00:36.33 bitrate=N/A speed=0.00818x    frame=  873 fps=0.2 q=-0.0 q=-0.0 size=N/A time=00:00:36.37 bitrate=N/A speed=0.00818x    frame=  874 fps=0.2 q=-0.0 q=-0.0 size=N/A time=00:00:36.41 bitrate=N/A speed=0.00818x    frame=  875 fps=0.2 q=-0.0 q=-0.0 size=N/A time=00:00:36.45 bitrate=N/A speed=0.00819x    frame=  876 fps=0.2 q=-0.0 q=-0.0 size=N/A time=00:00:36.50 bitrate=N/A speed=0.00819x    frame=  877 fps=0.2 q=-0.0 q=-0.0 size=N/A time=00:00:36.54 bitrate=N/A speed=0.00819x    frame=  878 fps=0.2 q=-0.0 q=-0.0 size=N/A time=00:00:36.58 bitrate=N/A speed=0.0082x    frame=  879 fps=0.2 q=-0.0 q=-0.0 size=N/A time=00:00:36.62 bitrate=N/A speed=0.0082x    frame=  880 fps=0.2 q=-0.0 q=-0.0 size=N/A time=00:00:36.66 bitrate=N/A speed=0.0082x    frame=  881 fps=0.2 q=-0.0 q=-0.0 size=N/A time=00:00:36.70 bitrate=N/A speed=0.0082x    frame=  882 fps=0.2 q=-0.0 q=-0.0 size=N/A time=00:00:36.75 bitrate=N/A speed=0.0082x    frame=  883 fps=0.2 q=-0.0 q=-0.0 size=N/A time=00:00:36.79 bitrate=N/A speed=0.00821x    frame=  884 fps=0.2 q=-0.0 q=-0.0 size=N/A time=00:00:36.83 bitrate=N/A speed=0.00821x    frame=  885 fps=0.2 q=-0.0 q=-0.0 size=N/A time=00:00:36.87 bitrate=N/A speed=0.00821x    frame=  886 fps=0.2 q=-0.0 Lq=-0.0 size=N/A time=00:00:36.91 bitrate=N/A speed=0.00822x    
video:928kB audio:6359kB subtitle:0kB other streams:0kB global headers:0kB muxing overhead: unknown
[Parsed_ssim_0 @ 0000026a1ba2a4c0] SSIM R:0.973275 (15.730750) G:0.977873 (16.550862) B:0.972369 (15.586069) All:0.974506 (15.935581)
[Parsed_psnr_1 @ 0000026a1ba2b700] PSNR r:35.584930 g:35.901430 b:34.483302 average:35.279678 min:21.881278 max:inf
